<?xml version="1.0" encoding="UTF-8" standalone="no"?>
<!DOCTYPE svg PUBLIC "-//W3C//DTD SVG 1.1//EN"
 "http://www.w3.org/Graphics/SVG/1.1/DTD/svg11.dtd">
<!-- Generated by graphviz version 2.40.1 (20161225.0304)
 -->
<!-- Title: dependencies Pages: 1 -->
<svg width="1947pt" height="211pt"
 viewBox="0.00 0.00 1947.00 211.00" xmlns="http://www.w3.org/2000/svg" xmlns:xlink="http://www.w3.org/1999/xlink">
<g id="graph0" class="graph" transform="scale(1 1) rotate(0) translate(4 207)">
<title>dependencies</title>
<polygon fill="#ffffff" stroke="transparent" points="-4,4 -4,-207 1943,-207 1943,4 -4,4"/>
<text text-anchor="start" x="948.5091" y="-42.4" font-family="sans-serif" font-weight="bold" font-size="14.00" fill="#000000">Legend</text>
<polygon fill="#ffffb3" stroke="transparent" points="735.5,-10 735.5,-30 755.5,-30 755.5,-10 735.5,-10"/>
<text text-anchor="start" x="759.129" y="-15.4" font-family="sans-serif" font-size="14.00" fill="#000000"> &#160;Declarations</text>
<polygon fill="#8dd3c7" stroke="transparent" points="848.5,-10 848.5,-30 868.5,-30 868.5,-10 848.5,-10"/>
<text text-anchor="start" x="872.2251" y="-15.4" font-family="sans-serif" font-size="14.00" fill="#000000"> &#160;Module</text>
<polygon fill="#80b1d3" stroke="transparent" points="934.5,-10 934.5,-30 954.5,-30 954.5,-10 934.5,-10"/>
<text text-anchor="start" x="958.2812" y="-15.4" font-family="sans-serif" font-size="14.00" fill="#000000"> &#160;Bootstrap</text>
<polygon fill="#fdb462" stroke="transparent" points="1031.5,-10 1031.5,-30 1051.5,-30 1051.5,-10 1031.5,-10"/>
<text text-anchor="start" x="1055.1732" y="-15.4" font-family="sans-serif" font-size="14.00" fill="#000000"> &#160;Providers</text>
<polygon fill="#fb8072" stroke="transparent" points="1127.5,-10 1127.5,-30 1147.5,-30 1147.5,-10 1127.5,-10"/>
<text text-anchor="start" x="1151.2258" y="-15.4" font-family="sans-serif" font-size="14.00" fill="#000000"> &#160;Exports</text>
<g id="clust1" class="cluster">
<title>cluster_EmployeeModule</title>
<polygon fill="none" stroke="#000000" stroke-dasharray="1,5" points="8,-70 8,-195 1931,-195 1931,-70 8,-70"/>
</g>
<g id="clust2" class="cluster">
<title>cluster_EmployeeModule_declarations</title>
<polygon fill="none" stroke="#000000" points="318,-78 318,-130 1923,-130 1923,-78 318,-78"/>
</g>
<g id="clust13" class="cluster">
<title>cluster_EmployeeModule_imports</title>
<polygon fill="none" stroke="#000000" points="16,-78 16,-130 310,-130 310,-78 16,-78"/>
</g>
<!-- DetailedReportComponent -->
<g id="node1" class="node">
<title>DetailedReportComponent</title>
<polygon fill="#ffffb3" stroke="#000000" points="1915.3571,-122 1748.6429,-122 1748.6429,-86 1915.3571,-86 1915.3571,-122"/>
<text text-anchor="middle" x="1832" y="-99.8" font-family="Times,serif" font-size="14.00" fill="#000000">DetailedReportComponent</text>
</g>
<!-- EmployeeModule -->
<g id="node11" class="node">
<title>EmployeeModule</title>
<polygon fill="#8dd3c7" stroke="#000000" points="1018.3132,-187 1015.3132,-191 994.3132,-191 991.3132,-187 901.6868,-187 901.6868,-151 1018.3132,-151 1018.3132,-187"/>
<text text-anchor="middle" x="960" y="-164.8" font-family="Times,serif" font-size="14.00" fill="#000000">EmployeeModule</text>
</g>
<!-- DetailedReportComponent&#45;&gt;EmployeeModule -->
<g id="edge1" class="edge">
<title>DetailedReportComponent&#45;&gt;EmployeeModule</title>
<path fill="none" stroke="#000000" d="M1832,-122.0908C1832,-145.1328 1832,-182 1832,-182 1832,-182 1028.2286,-182 1028.2286,-182"/>
<polygon fill="#000000" stroke="#000000" points="1028.2286,-178.5001 1018.2286,-182 1028.2286,-185.5001 1028.2286,-178.5001"/>
</g>
<!-- EmployeeComponent -->
<g id="node2" class="node">
<title>EmployeeComponent</title>
<polygon fill="#ffffb3" stroke="#000000" points="1731.0954,-122 1592.9046,-122 1592.9046,-86 1731.0954,-86 1731.0954,-122"/>
<text text-anchor="middle" x="1662" y="-99.8" font-family="Times,serif" font-size="14.00" fill="#000000">EmployeeComponent</text>
</g>
<!-- EmployeeComponent&#45;&gt;EmployeeModule -->
<g id="edge2" class="edge">
<title>EmployeeComponent&#45;&gt;EmployeeModule</title>
<path fill="none" stroke="#000000" d="M1662,-122.2843C1662,-143.3211 1662,-175 1662,-175 1662,-175 1028.3444,-175 1028.3444,-175"/>
<polygon fill="#000000" stroke="#000000" points="1028.3445,-171.5001 1018.3444,-175 1028.3444,-178.5001 1028.3445,-171.5001"/>
</g>
<!-- InstructionsComponent -->
<g id="node3" class="node">
<title>InstructionsComponent</title>
<polygon fill="#ffffb3" stroke="#000000" points="1574.9298,-122 1427.0702,-122 1427.0702,-86 1574.9298,-86 1574.9298,-122"/>
<text text-anchor="middle" x="1501" y="-99.8" font-family="Times,serif" font-size="14.00" fill="#000000">InstructionsComponent</text>
</g>
<!-- InstructionsComponent&#45;&gt;EmployeeModule -->
<g id="edge3" class="edge">
<title>InstructionsComponent&#45;&gt;EmployeeModule</title>
<path fill="none" stroke="#000000" d="M1501,-122.1061C1501,-141.3391 1501,-169 1501,-169 1501,-169 1028.4105,-169 1028.4105,-169"/>
<polygon fill="#000000" stroke="#000000" points="1028.4105,-165.5001 1018.4105,-169 1028.4105,-172.5001 1028.4105,-165.5001"/>
</g>
<!-- MainNav3Component -->
<g id="node4" class="node">
<title>MainNav3Component</title>
<polygon fill="#ffffb3" stroke="#000000" points="1409.7035,-122 1268.2965,-122 1268.2965,-86 1409.7035,-86 1409.7035,-122"/>
<text text-anchor="middle" x="1339" y="-99.8" font-family="Times,serif" font-size="14.00" fill="#000000">MainNav3Component</text>
</g>
<!-- MainNav3Component&#45;&gt;EmployeeModule -->
<g id="edge4" class="edge">
<title>MainNav3Component&#45;&gt;EmployeeModule</title>
<path fill="none" stroke="#000000" d="M1339,-122.0225C1339,-139.3734 1339,-163 1339,-163 1339,-163 1028.3882,-163 1028.3882,-163"/>
<polygon fill="#000000" stroke="#000000" points="1028.3882,-159.5001 1018.3882,-163 1028.3881,-166.5001 1028.3882,-159.5001"/>
</g>
<!-- MockComponent -->
<g id="node5" class="node">
<title>MockComponent</title>
<polygon fill="#ffffb3" stroke="#000000" points="1249.9916,-122 1136.0084,-122 1136.0084,-86 1249.9916,-86 1249.9916,-122"/>
<text text-anchor="middle" x="1193" y="-99.8" font-family="Times,serif" font-size="14.00" fill="#000000">MockComponent</text>
</g>
<!-- MockComponent&#45;&gt;EmployeeModule -->
<g id="edge5" class="edge">
<title>MockComponent&#45;&gt;EmployeeModule</title>
<path fill="none" stroke="#000000" d="M1193,-122.2396C1193,-137.5706 1193,-157 1193,-157 1193,-157 1028.1947,-157 1028.1947,-157"/>
<polygon fill="#000000" stroke="#000000" points="1028.1947,-153.5001 1018.1947,-157 1028.1947,-160.5001 1028.1947,-153.5001"/>
</g>
<!-- MockReportComponent -->
<g id="node6" class="node">
<title>MockReportComponent</title>
<polygon fill="#ffffb3" stroke="#000000" points="1118.094,-122 965.906,-122 965.906,-86 1118.094,-86 1118.094,-122"/>
<text text-anchor="middle" x="1042" y="-99.8" font-family="Times,serif" font-size="14.00" fill="#000000">MockReportComponent</text>
</g>
<!-- MockReportComponent&#45;&gt;EmployeeModule -->
<g id="edge6" class="edge">
<title>MockReportComponent&#45;&gt;EmployeeModule</title>
<path fill="none" stroke="#000000" d="M992.0547,-122.1061C992.0547,-122.1061 992.0547,-140.991 992.0547,-140.991"/>
<polygon fill="#000000" stroke="#000000" points="988.5548,-140.9909 992.0547,-150.991 995.5548,-140.991 988.5548,-140.9909"/>
</g>
<!-- NonMockComponent -->
<g id="node7" class="node">
<title>NonMockComponent</title>
<polygon fill="#ffffb3" stroke="#000000" points="948.0982,-122 809.9018,-122 809.9018,-86 948.0982,-86 948.0982,-122"/>
<text text-anchor="middle" x="879" y="-99.8" font-family="Times,serif" font-size="14.00" fill="#000000">NonMockComponent</text>
</g>
<!-- NonMockComponent&#45;&gt;EmployeeModule -->
<g id="edge7" class="edge">
<title>NonMockComponent&#45;&gt;EmployeeModule</title>
<path fill="none" stroke="#000000" d="M924.9464,-122.1061C924.9464,-122.1061 924.9464,-140.991 924.9464,-140.991"/>
<polygon fill="#000000" stroke="#000000" points="921.4464,-140.9909 924.9464,-150.991 928.4464,-140.991 921.4464,-140.9909"/>
</g>
<!-- NonMockReportComponent -->
<g id="node8" class="node">
<title>NonMockReportComponent</title>
<polygon fill="#ffffb3" stroke="#000000" points="792.2007,-122 615.7993,-122 615.7993,-86 792.2007,-86 792.2007,-122"/>
<text text-anchor="middle" x="704" y="-99.8" font-family="Times,serif" font-size="14.00" fill="#000000">NonMockReportComponent</text>
</g>
<!-- NonMockReportComponent&#45;&gt;EmployeeModule -->
<g id="edge8" class="edge">
<title>NonMockReportComponent&#45;&gt;EmployeeModule</title>
<path fill="none" stroke="#000000" d="M704,-122.2396C704,-137.5706 704,-157 704,-157 704,-157 891.5893,-157 891.5893,-157"/>
<polygon fill="#000000" stroke="#000000" points="891.5893,-160.5001 901.5893,-157 891.5893,-153.5001 891.5893,-160.5001"/>
</g>
<!-- ResultComponent -->
<g id="node9" class="node">
<title>ResultComponent</title>
<polygon fill="#ffffb3" stroke="#000000" points="597.6095,-122 480.3905,-122 480.3905,-86 597.6095,-86 597.6095,-122"/>
<text text-anchor="middle" x="539" y="-99.8" font-family="Times,serif" font-size="14.00" fill="#000000">ResultComponent</text>
</g>
<!-- ResultComponent&#45;&gt;EmployeeModule -->
<g id="edge9" class="edge">
<title>ResultComponent&#45;&gt;EmployeeModule</title>
<path fill="none" stroke="#000000" d="M539,-122.0225C539,-139.3734 539,-163 539,-163 539,-163 891.4618,-163 891.4618,-163"/>
<polygon fill="#000000" stroke="#000000" points="891.4618,-166.5001 901.4618,-163 891.4617,-159.5001 891.4618,-166.5001"/>
</g>
<!-- TakeQuizComponent -->
<g id="node10" class="node">
<title>TakeQuizComponent</title>
<polygon fill="#ffffb3" stroke="#000000" points="462.0268,-122 325.9732,-122 325.9732,-86 462.0268,-86 462.0268,-122"/>
<text text-anchor="middle" x="394" y="-99.8" font-family="Times,serif" font-size="14.00" fill="#000000">TakeQuizComponent</text>
</g>
<!-- TakeQuizComponent&#45;&gt;EmployeeModule -->
<g id="edge10" class="edge">
<title>TakeQuizComponent&#45;&gt;EmployeeModule</title>
<path fill="none" stroke="#000000" d="M394,-122.1061C394,-141.3391 394,-169 394,-169 394,-169 891.8242,-169 891.8242,-169"/>
<polygon fill="#000000" stroke="#000000" points="891.8242,-172.5001 901.8242,-169 891.8241,-165.5001 891.8242,-172.5001"/>
</g>
<!-- EmployeeRoutingModule -->
<g id="node12" class="node">
<title>EmployeeRoutingModule</title>
<polygon fill="#8dd3c7" stroke="#000000" points="301.9312,-122 298.9312,-126 277.9312,-126 274.9312,-122 140.0688,-122 140.0688,-86 301.9312,-86 301.9312,-122"/>
<text text-anchor="middle" x="221" y="-99.8" font-family="Times,serif" font-size="14.00" fill="#000000">EmployeeRoutingModule</text>
</g>
<!-- EmployeeRoutingModule&#45;&gt;EmployeeModule -->
<g id="edge11" class="edge">
<title>EmployeeRoutingModule&#45;&gt;EmployeeModule</title>
<path fill="none" stroke="#000000" d="M221,-122.2843C221,-143.3211 221,-175 221,-175 221,-175 891.7034,-175 891.7034,-175"/>
<polygon fill="#000000" stroke="#000000" points="891.7034,-178.5001 901.7034,-175 891.7034,-171.5001 891.7034,-178.5001"/>
</g>
<!-- SharedModule -->
<g id="node13" class="node">
<title>SharedModule</title>
<polygon fill="#8dd3c7" stroke="#000000" points="122.4231,-122 119.4231,-126 98.4231,-126 95.4231,-122 23.5769,-122 23.5769,-86 122.4231,-86 122.4231,-122"/>
<text text-anchor="middle" x="73" y="-99.8" font-family="Times,serif" font-size="14.00" fill="#000000">SharedModule</text>
</g>
<!-- SharedModule&#45;&gt;EmployeeModule -->
<g id="edge12" class="edge">
<title>SharedModule&#45;&gt;EmployeeModule</title>
<path fill="none" stroke="#000000" d="M73,-122.0908C73,-145.1328 73,-182 73,-182 73,-182 891.8015,-182 891.8015,-182"/>
<polygon fill="#000000" stroke="#000000" points="891.8015,-185.5001 901.8015,-182 891.8014,-178.5001 891.8015,-185.5001"/>
</g>
</g>
</svg>
