<?xml version="1.0" encoding="UTF-8" standalone="no"?>
<!DOCTYPE svg PUBLIC "-//W3C//DTD SVG 1.1//EN"
 "http://www.w3.org/Graphics/SVG/1.1/DTD/svg11.dtd">
<!-- Generated by graphviz version 2.40.1 (20161225.0304)
 -->
<!-- Title: dependencies Pages: 1 -->
<svg width="1767pt" height="211pt"
 viewBox="0.00 0.00 1767.00 211.00" xmlns="http://www.w3.org/2000/svg" xmlns:xlink="http://www.w3.org/1999/xlink">
<g id="graph0" class="graph" transform="scale(1 1) rotate(0) translate(4 207)">
<title>dependencies</title>
<polygon fill="#ffffff" stroke="transparent" points="-4,4 -4,-207 1763,-207 1763,4 -4,4"/>
<text text-anchor="start" x="858.5091" y="-42.4" font-family="sans-serif" font-weight="bold" font-size="14.00" fill="#000000">Legend</text>
<polygon fill="#ffffb3" stroke="transparent" points="645.5,-10 645.5,-30 665.5,-30 665.5,-10 645.5,-10"/>
<text text-anchor="start" x="669.129" y="-15.4" font-family="sans-serif" font-size="14.00" fill="#000000"> &#160;Declarations</text>
<polygon fill="#8dd3c7" stroke="transparent" points="758.5,-10 758.5,-30 778.5,-30 778.5,-10 758.5,-10"/>
<text text-anchor="start" x="782.2251" y="-15.4" font-family="sans-serif" font-size="14.00" fill="#000000"> &#160;Module</text>
<polygon fill="#80b1d3" stroke="transparent" points="844.5,-10 844.5,-30 864.5,-30 864.5,-10 844.5,-10"/>
<text text-anchor="start" x="868.2812" y="-15.4" font-family="sans-serif" font-size="14.00" fill="#000000"> &#160;Bootstrap</text>
<polygon fill="#fdb462" stroke="transparent" points="941.5,-10 941.5,-30 961.5,-30 961.5,-10 941.5,-10"/>
<text text-anchor="start" x="965.1732" y="-15.4" font-family="sans-serif" font-size="14.00" fill="#000000"> &#160;Providers</text>
<polygon fill="#fb8072" stroke="transparent" points="1037.5,-10 1037.5,-30 1057.5,-30 1057.5,-10 1037.5,-10"/>
<text text-anchor="start" x="1061.2258" y="-15.4" font-family="sans-serif" font-size="14.00" fill="#000000"> &#160;Exports</text>
<g id="clust1" class="cluster">
<title>cluster_EmployeeModule</title>
<polygon fill="none" stroke="#000000" stroke-dasharray="1,5" points="8,-70 8,-195 1751,-195 1751,-70 8,-70"/>
</g>
<g id="clust2" class="cluster">
<title>cluster_EmployeeModule_declarations</title>
<polygon fill="none" stroke="#000000" points="138,-78 138,-130 1743,-130 1743,-78 138,-78"/>
</g>
<g id="clust13" class="cluster">
<title>cluster_EmployeeModule_imports</title>
<polygon fill="none" stroke="#000000" points="16,-78 16,-130 130,-130 130,-78 16,-78"/>
</g>
<!-- DetailedReportComponent -->
<g id="node1" class="node">
<title>DetailedReportComponent</title>
<polygon fill="#ffffb3" stroke="#000000" points="1735.3571,-122 1568.6429,-122 1568.6429,-86 1735.3571,-86 1735.3571,-122"/>
<text text-anchor="middle" x="1652" y="-99.8" font-family="Times,serif" font-size="14.00" fill="#000000">DetailedReportComponent</text>
</g>
<!-- EmployeeModule -->
<g id="node11" class="node">
<title>EmployeeModule</title>
<polygon fill="#8dd3c7" stroke="#000000" points="920.3132,-187 917.3132,-191 896.3132,-191 893.3132,-187 803.6868,-187 803.6868,-151 920.3132,-151 920.3132,-187"/>
<text text-anchor="middle" x="862" y="-164.8" font-family="Times,serif" font-size="14.00" fill="#000000">EmployeeModule</text>
</g>
<!-- DetailedReportComponent&#45;&gt;EmployeeModule -->
<g id="edge1" class="edge">
<title>DetailedReportComponent&#45;&gt;EmployeeModule</title>
<path fill="none" stroke="#000000" d="M1652,-122.0908C1652,-145.1328 1652,-182 1652,-182 1652,-182 930.4114,-182 930.4114,-182"/>
<polygon fill="#000000" stroke="#000000" points="930.4114,-178.5001 920.4114,-182 930.4114,-185.5001 930.4114,-178.5001"/>
</g>
<!-- EmployeeComponent -->
<g id="node2" class="node">
<title>EmployeeComponent</title>
<polygon fill="#ffffb3" stroke="#000000" points="1551.0954,-122 1412.9046,-122 1412.9046,-86 1551.0954,-86 1551.0954,-122"/>
<text text-anchor="middle" x="1482" y="-99.8" font-family="Times,serif" font-size="14.00" fill="#000000">EmployeeComponent</text>
</g>
<!-- EmployeeComponent&#45;&gt;EmployeeModule -->
<g id="edge2" class="edge">
<title>EmployeeComponent&#45;&gt;EmployeeModule</title>
<path fill="none" stroke="#000000" d="M1482,-122.2843C1482,-143.3211 1482,-175 1482,-175 1482,-175 930.3281,-175 930.3281,-175"/>
<polygon fill="#000000" stroke="#000000" points="930.3281,-171.5001 920.3281,-175 930.3281,-178.5001 930.3281,-171.5001"/>
</g>
<!-- InstructionsComponent -->
<g id="node3" class="node">
<title>InstructionsComponent</title>
<polygon fill="#ffffb3" stroke="#000000" points="1394.9298,-122 1247.0702,-122 1247.0702,-86 1394.9298,-86 1394.9298,-122"/>
<text text-anchor="middle" x="1321" y="-99.8" font-family="Times,serif" font-size="14.00" fill="#000000">InstructionsComponent</text>
</g>
<!-- InstructionsComponent&#45;&gt;EmployeeModule -->
<g id="edge3" class="edge">
<title>InstructionsComponent&#45;&gt;EmployeeModule</title>
<path fill="none" stroke="#000000" d="M1321,-122.1061C1321,-141.3391 1321,-169 1321,-169 1321,-169 930.5989,-169 930.5989,-169"/>
<polygon fill="#000000" stroke="#000000" points="930.5989,-165.5001 920.5989,-169 930.5989,-172.5001 930.5989,-165.5001"/>
</g>
<!-- MainNav3Component -->
<g id="node4" class="node">
<title>MainNav3Component</title>
<polygon fill="#ffffb3" stroke="#000000" points="1229.7035,-122 1088.2965,-122 1088.2965,-86 1229.7035,-86 1229.7035,-122"/>
<text text-anchor="middle" x="1159" y="-99.8" font-family="Times,serif" font-size="14.00" fill="#000000">MainNav3Component</text>
</g>
<!-- MainNav3Component&#45;&gt;EmployeeModule -->
<g id="edge4" class="edge">
<title>MainNav3Component&#45;&gt;EmployeeModule</title>
<path fill="none" stroke="#000000" d="M1159,-122.0225C1159,-139.3734 1159,-163 1159,-163 1159,-163 930.3233,-163 930.3233,-163"/>
<polygon fill="#000000" stroke="#000000" points="930.3233,-159.5001 920.3233,-163 930.3232,-166.5001 930.3233,-159.5001"/>
</g>
<!-- MockComponent -->
<g id="node5" class="node">
<title>MockComponent</title>
<polygon fill="#ffffb3" stroke="#000000" points="1069.9916,-122 956.0084,-122 956.0084,-86 1069.9916,-86 1069.9916,-122"/>
<text text-anchor="middle" x="1013" y="-99.8" font-family="Times,serif" font-size="14.00" fill="#000000">MockComponent</text>
</g>
<!-- MockComponent&#45;&gt;EmployeeModule -->
<g id="edge5" class="edge">
<title>MockComponent&#45;&gt;EmployeeModule</title>
<path fill="none" stroke="#000000" d="M1013,-122.2396C1013,-137.5706 1013,-157 1013,-157 1013,-157 930.3805,-157 930.3805,-157"/>
<polygon fill="#000000" stroke="#000000" points="930.3806,-153.5001 920.3805,-157 930.3805,-160.5001 930.3806,-153.5001"/>
</g>
<!-- MockReportComponent -->
<g id="node6" class="node">
<title>MockReportComponent</title>
<polygon fill="#ffffb3" stroke="#000000" points="938.094,-122 785.906,-122 785.906,-86 938.094,-86 938.094,-122"/>
<text text-anchor="middle" x="862" y="-99.8" font-family="Times,serif" font-size="14.00" fill="#000000">MockReportComponent</text>
</g>
<!-- MockReportComponent&#45;&gt;EmployeeModule -->
<g id="edge6" class="edge">
<title>MockReportComponent&#45;&gt;EmployeeModule</title>
<path fill="none" stroke="#000000" d="M862,-122.1061C862,-122.1061 862,-140.991 862,-140.991"/>
<polygon fill="#000000" stroke="#000000" points="858.5001,-140.9909 862,-150.991 865.5001,-140.991 858.5001,-140.9909"/>
</g>
<!-- NonMockComponent -->
<g id="node7" class="node">
<title>NonMockComponent</title>
<polygon fill="#ffffb3" stroke="#000000" points="768.0982,-122 629.9018,-122 629.9018,-86 768.0982,-86 768.0982,-122"/>
<text text-anchor="middle" x="699" y="-99.8" font-family="Times,serif" font-size="14.00" fill="#000000">NonMockComponent</text>
</g>
<!-- NonMockComponent&#45;&gt;EmployeeModule -->
<g id="edge7" class="edge">
<title>NonMockComponent&#45;&gt;EmployeeModule</title>
<path fill="none" stroke="#000000" d="M699,-122.2396C699,-137.5706 699,-157 699,-157 699,-157 793.6137,-157 793.6137,-157"/>
<polygon fill="#000000" stroke="#000000" points="793.6137,-160.5001 803.6137,-157 793.6136,-153.5001 793.6137,-160.5001"/>
</g>
<!-- NonMockReportComponent -->
<g id="node8" class="node">
<title>NonMockReportComponent</title>
<polygon fill="#ffffb3" stroke="#000000" points="612.2007,-122 435.7993,-122 435.7993,-86 612.2007,-86 612.2007,-122"/>
<text text-anchor="middle" x="524" y="-99.8" font-family="Times,serif" font-size="14.00" fill="#000000">NonMockReportComponent</text>
</g>
<!-- NonMockReportComponent&#45;&gt;EmployeeModule -->
<g id="edge8" class="edge">
<title>NonMockReportComponent&#45;&gt;EmployeeModule</title>
<path fill="none" stroke="#000000" d="M524,-122.0225C524,-139.3734 524,-163 524,-163 524,-163 793.5108,-163 793.5108,-163"/>
<polygon fill="#000000" stroke="#000000" points="793.5108,-166.5001 803.5108,-163 793.5107,-159.5001 793.5108,-166.5001"/>
</g>
<!-- ResultComponent -->
<g id="node9" class="node">
<title>ResultComponent</title>
<polygon fill="#ffffb3" stroke="#000000" points="417.6095,-122 300.3905,-122 300.3905,-86 417.6095,-86 417.6095,-122"/>
<text text-anchor="middle" x="359" y="-99.8" font-family="Times,serif" font-size="14.00" fill="#000000">ResultComponent</text>
</g>
<!-- ResultComponent&#45;&gt;EmployeeModule -->
<g id="edge9" class="edge">
<title>ResultComponent&#45;&gt;EmployeeModule</title>
<path fill="none" stroke="#000000" d="M359,-122.1061C359,-141.3391 359,-169 359,-169 359,-169 793.8081,-169 793.8081,-169"/>
<polygon fill="#000000" stroke="#000000" points="793.8082,-172.5001 803.8081,-169 793.8081,-165.5001 793.8082,-172.5001"/>
</g>
<!-- TakeQuizComponent -->
<g id="node10" class="node">
<title>TakeQuizComponent</title>
<polygon fill="#ffffb3" stroke="#000000" points="282.0268,-122 145.9732,-122 145.9732,-86 282.0268,-86 282.0268,-122"/>
<text text-anchor="middle" x="214" y="-99.8" font-family="Times,serif" font-size="14.00" fill="#000000">TakeQuizComponent</text>
</g>
<!-- TakeQuizComponent&#45;&gt;EmployeeModule -->
<g id="edge10" class="edge">
<title>TakeQuizComponent&#45;&gt;EmployeeModule</title>
<path fill="none" stroke="#000000" d="M214,-122.2843C214,-143.3211 214,-175 214,-175 214,-175 793.638,-175 793.638,-175"/>
<polygon fill="#000000" stroke="#000000" points="793.6381,-178.5001 803.638,-175 793.638,-171.5001 793.6381,-178.5001"/>
</g>
<!-- SharedModule -->
<g id="node12" class="node">
<title>SharedModule</title>
<polygon fill="#8dd3c7" stroke="#000000" points="122.4231,-122 119.4231,-126 98.4231,-126 95.4231,-122 23.5769,-122 23.5769,-86 122.4231,-86 122.4231,-122"/>
<text text-anchor="middle" x="73" y="-99.8" font-family="Times,serif" font-size="14.00" fill="#000000">SharedModule</text>
</g>
<!-- SharedModule&#45;&gt;EmployeeModule -->
<g id="edge11" class="edge">
<title>SharedModule&#45;&gt;EmployeeModule</title>
<path fill="none" stroke="#000000" d="M73,-122.0908C73,-145.1328 73,-182 73,-182 73,-182 793.6625,-182 793.6625,-182"/>
<polygon fill="#000000" stroke="#000000" points="793.6626,-185.5001 803.6625,-182 793.6625,-178.5001 793.6626,-185.5001"/>
</g>
</g>
</svg>
