<?xml version="1.0" encoding="UTF-8" standalone="no"?>
<!DOCTYPE svg PUBLIC "-//W3C//DTD SVG 1.1//EN"
 "http://www.w3.org/Graphics/SVG/1.1/DTD/svg11.dtd">
<!-- Generated by graphviz version 2.40.1 (20161225.0304)
 -->
<!-- Title: dependencies Pages: 1 -->
<svg width="2639pt" height="211pt"
 viewBox="0.00 0.00 2639.00 211.00" xmlns="http://www.w3.org/2000/svg" xmlns:xlink="http://www.w3.org/1999/xlink">
<g id="graph0" class="graph" transform="scale(1 1) rotate(0) translate(4 207)">
<title>dependencies</title>
<polygon fill="#ffffff" stroke="transparent" points="-4,4 -4,-207 2635,-207 2635,4 -4,4"/>
<text text-anchor="start" x="1294.5091" y="-42.4" font-family="sans-serif" font-weight="bold" font-size="14.00" fill="#000000">Legend</text>
<polygon fill="#ffffb3" stroke="transparent" points="1081.5,-10 1081.5,-30 1101.5,-30 1101.5,-10 1081.5,-10"/>
<text text-anchor="start" x="1105.129" y="-15.4" font-family="sans-serif" font-size="14.00" fill="#000000"> &#160;Declarations</text>
<polygon fill="#8dd3c7" stroke="transparent" points="1194.5,-10 1194.5,-30 1214.5,-30 1214.5,-10 1194.5,-10"/>
<text text-anchor="start" x="1218.2251" y="-15.4" font-family="sans-serif" font-size="14.00" fill="#000000"> &#160;Module</text>
<polygon fill="#80b1d3" stroke="transparent" points="1280.5,-10 1280.5,-30 1300.5,-30 1300.5,-10 1280.5,-10"/>
<text text-anchor="start" x="1304.2812" y="-15.4" font-family="sans-serif" font-size="14.00" fill="#000000"> &#160;Bootstrap</text>
<polygon fill="#fdb462" stroke="transparent" points="1377.5,-10 1377.5,-30 1397.5,-30 1397.5,-10 1377.5,-10"/>
<text text-anchor="start" x="1401.1732" y="-15.4" font-family="sans-serif" font-size="14.00" fill="#000000"> &#160;Providers</text>
<polygon fill="#fb8072" stroke="transparent" points="1473.5,-10 1473.5,-30 1493.5,-30 1493.5,-10 1473.5,-10"/>
<text text-anchor="start" x="1497.2258" y="-15.4" font-family="sans-serif" font-size="14.00" fill="#000000"> &#160;Exports</text>
<g id="clust1" class="cluster">
<title>cluster_ContentCreatorModule</title>
<polygon fill="none" stroke="#000000" stroke-dasharray="1,5" points="8,-70 8,-195 2623,-195 2623,-70 8,-70"/>
</g>
<g id="clust2" class="cluster">
<title>cluster_ContentCreatorModule_declarations</title>
<polygon fill="none" stroke="#000000" points="362,-78 362,-130 2615,-130 2615,-78 362,-78"/>
</g>
<g id="clust16" class="cluster">
<title>cluster_ContentCreatorModule_imports</title>
<polygon fill="none" stroke="#000000" points="240,-78 240,-130 354,-130 354,-78 240,-78"/>
</g>
<g id="clust19" class="cluster">
<title>cluster_ContentCreatorModule_providers</title>
<polygon fill="none" stroke="#000000" points="16,-78 16,-130 232,-130 232,-78 16,-78"/>
</g>
<!-- AddQuesInQuizComponent -->
<g id="node1" class="node">
<title>AddQuesInQuizComponent</title>
<polygon fill="#ffffb3" stroke="#000000" points="2606.5772,-122 2433.4228,-122 2433.4228,-86 2606.5772,-86 2606.5772,-122"/>
<text text-anchor="middle" x="2520" y="-99.8" font-family="Times,serif" font-size="14.00" fill="#000000">AddQuesInQuizComponent</text>
</g>
<!-- ContentCreatorModule -->
<g id="node14" class="node">
<title>ContentCreatorModule</title>
<polygon fill="#8dd3c7" stroke="#000000" points="1365.8599,-187 1362.8599,-191 1341.8599,-191 1338.8599,-187 1220.1401,-187 1220.1401,-151 1365.8599,-151 1365.8599,-187"/>
<text text-anchor="middle" x="1293" y="-164.8" font-family="Times,serif" font-size="14.00" fill="#000000">ContentCreatorModule</text>
</g>
<!-- AddQuesInQuizComponent&#45;&gt;ContentCreatorModule -->
<g id="edge1" class="edge">
<title>AddQuesInQuizComponent&#45;&gt;ContentCreatorModule</title>
<path fill="none" stroke="#000000" d="M2520,-122.3228C2520,-145.6602 2520,-183 2520,-183 2520,-183 1376.0799,-183 1376.0799,-183"/>
<polygon fill="#000000" stroke="#000000" points="1376.0799,-179.5001 1366.0799,-183 1376.0799,-186.5001 1376.0799,-179.5001"/>
</g>
<!-- ArchiveQuizComponent -->
<g id="node2" class="node">
<title>ArchiveQuizComponent</title>
<polygon fill="#ffffb3" stroke="#000000" points="2415.6316,-122 2262.3684,-122 2262.3684,-86 2415.6316,-86 2415.6316,-122"/>
<text text-anchor="middle" x="2339" y="-99.8" font-family="Times,serif" font-size="14.00" fill="#000000">ArchiveQuizComponent</text>
</g>
<!-- ArchiveQuizComponent&#45;&gt;ContentCreatorModule -->
<g id="edge2" class="edge">
<title>ArchiveQuizComponent&#45;&gt;ContentCreatorModule</title>
<path fill="none" stroke="#000000" d="M2339,-122.2921C2339,-144.2057 2339,-178 2339,-178 2339,-178 1376.137,-178 1376.137,-178"/>
<polygon fill="#000000" stroke="#000000" points="1376.137,-174.5001 1366.137,-178 1376.1369,-181.5001 1376.137,-174.5001"/>
</g>
<!-- ContentCreatorComponent -->
<g id="node3" class="node">
<title>ContentCreatorComponent</title>
<polygon fill="#ffffb3" stroke="#000000" points="2243.6428,-122 2076.3572,-122 2076.3572,-86 2243.6428,-86 2243.6428,-122"/>
<text text-anchor="middle" x="2160" y="-99.8" font-family="Times,serif" font-size="14.00" fill="#000000">ContentCreatorComponent</text>
</g>
<!-- ContentCreatorComponent&#45;&gt;ContentCreatorModule -->
<g id="edge3" class="edge">
<title>ContentCreatorComponent&#45;&gt;ContentCreatorModule</title>
<path fill="none" stroke="#000000" d="M2160,-122.0267C2160,-142.7672 2160,-174 2160,-174 2160,-174 1376.1727,-174 1376.1727,-174"/>
<polygon fill="#000000" stroke="#000000" points="1376.1728,-170.5001 1366.1727,-174 1376.1727,-177.5001 1376.1728,-170.5001"/>
</g>
<!-- CreateQuestionsComponent -->
<g id="node4" class="node">
<title>CreateQuestionsComponent</title>
<polygon fill="#ffffb3" stroke="#000000" points="2057.8557,-122 1884.1443,-122 1884.1443,-86 2057.8557,-86 2057.8557,-122"/>
<text text-anchor="middle" x="1971" y="-99.8" font-family="Times,serif" font-size="14.00" fill="#000000">CreateQuestionsComponent</text>
</g>
<!-- CreateQuestionsComponent&#45;&gt;ContentCreatorModule -->
<g id="edge4" class="edge">
<title>CreateQuestionsComponent&#45;&gt;ContentCreatorModule</title>
<path fill="none" stroke="#000000" d="M1971,-122.1061C1971,-141.3391 1971,-169 1971,-169 1971,-169 1375.8797,-169 1375.8797,-169"/>
<polygon fill="#000000" stroke="#000000" points="1375.8797,-165.5001 1365.8797,-169 1375.8796,-172.5001 1375.8797,-165.5001"/>
</g>
<!-- CreateQuizComponent -->
<g id="node5" class="node">
<title>CreateQuizComponent</title>
<polygon fill="#ffffb3" stroke="#000000" points="1866.5758,-122 1721.4242,-122 1721.4242,-86 1866.5758,-86 1866.5758,-122"/>
<text text-anchor="middle" x="1794" y="-99.8" font-family="Times,serif" font-size="14.00" fill="#000000">CreateQuizComponent</text>
</g>
<!-- CreateQuizComponent&#45;&gt;ContentCreatorModule -->
<g id="edge5" class="edge">
<title>CreateQuizComponent&#45;&gt;ContentCreatorModule</title>
<path fill="none" stroke="#000000" d="M1794,-122.302C1794,-140.2699 1794,-165 1794,-165 1794,-165 1376.1178,-165 1376.1178,-165"/>
<polygon fill="#000000" stroke="#000000" points="1376.1178,-161.5001 1366.1178,-165 1376.1178,-168.5001 1376.1178,-161.5001"/>
</g>
<!-- CreatetagComponent -->
<g id="node6" class="node">
<title>CreatetagComponent</title>
<polygon fill="#ffffb3" stroke="#000000" points="1703.4692,-122 1568.5308,-122 1568.5308,-86 1703.4692,-86 1703.4692,-122"/>
<text text-anchor="middle" x="1636" y="-99.8" font-family="Times,serif" font-size="14.00" fill="#000000">CreatetagComponent</text>
</g>
<!-- CreatetagComponent&#45;&gt;ContentCreatorModule -->
<g id="edge6" class="edge">
<title>CreatetagComponent&#45;&gt;ContentCreatorModule</title>
<path fill="none" stroke="#000000" d="M1636,-122.027C1636,-138.3976 1636,-160 1636,-160 1636,-160 1376.1614,-160 1376.1614,-160"/>
<polygon fill="#000000" stroke="#000000" points="1376.1614,-156.5001 1366.1614,-160 1376.1614,-163.5001 1376.1614,-156.5001"/>
</g>
<!-- MainNavComponent -->
<g id="node7" class="node">
<title>MainNavComponent</title>
<polygon fill="#ffffb3" stroke="#000000" points="1550.2036,-122 1415.7964,-122 1415.7964,-86 1550.2036,-86 1550.2036,-122"/>
<text text-anchor="middle" x="1483" y="-99.8" font-family="Times,serif" font-size="14.00" fill="#000000">MainNavComponent</text>
</g>
<!-- MainNavComponent&#45;&gt;ContentCreatorModule -->
<g id="edge7" class="edge">
<title>MainNavComponent&#45;&gt;ContentCreatorModule</title>
<path fill="none" stroke="#000000" d="M1483,-122.1871C1483,-137.1824 1483,-156 1483,-156 1483,-156 1375.9156,-156 1375.9156,-156"/>
<polygon fill="#000000" stroke="#000000" points="1375.9156,-152.5001 1365.9156,-156 1375.9155,-159.5001 1375.9156,-152.5001"/>
</g>
<!-- RetrieveQuestionBankComponent -->
<g id="node8" class="node">
<title>RetrieveQuestionBankComponent</title>
<polygon fill="#ffffb3" stroke="#000000" points="1397.3529,-122 1188.6471,-122 1188.6471,-86 1397.3529,-86 1397.3529,-122"/>
<text text-anchor="middle" x="1293" y="-99.8" font-family="Times,serif" font-size="14.00" fill="#000000">RetrieveQuestionBankComponent</text>
</g>
<!-- RetrieveQuestionBankComponent&#45;&gt;ContentCreatorModule -->
<g id="edge8" class="edge">
<title>RetrieveQuestionBankComponent&#45;&gt;ContentCreatorModule</title>
<path fill="none" stroke="#000000" d="M1293,-122.1061C1293,-122.1061 1293,-140.991 1293,-140.991"/>
<polygon fill="#000000" stroke="#000000" points="1289.5001,-140.9909 1293,-150.991 1296.5001,-140.991 1289.5001,-140.9909"/>
</g>
<!-- RetrieveQuizComponent -->
<g id="node9" class="node">
<title>RetrieveQuizComponent</title>
<polygon fill="#ffffb3" stroke="#000000" points="1170.9664,-122 1015.0336,-122 1015.0336,-86 1170.9664,-86 1170.9664,-122"/>
<text text-anchor="middle" x="1093" y="-99.8" font-family="Times,serif" font-size="14.00" fill="#000000">RetrieveQuizComponent</text>
</g>
<!-- RetrieveQuizComponent&#45;&gt;ContentCreatorModule -->
<g id="edge9" class="edge">
<title>RetrieveQuizComponent&#45;&gt;ContentCreatorModule</title>
<path fill="none" stroke="#000000" d="M1093,-122.1871C1093,-137.1824 1093,-156 1093,-156 1093,-156 1209.9464,-156 1209.9464,-156"/>
<polygon fill="#000000" stroke="#000000" points="1209.9465,-159.5001 1219.9464,-156 1209.9464,-152.5001 1209.9465,-159.5001"/>
</g>
<!-- TagComponent -->
<g id="node10" class="node">
<title>TagComponent</title>
<polygon fill="#ffffb3" stroke="#000000" points="996.5996,-122 893.4004,-122 893.4004,-86 996.5996,-86 996.5996,-122"/>
<text text-anchor="middle" x="945" y="-99.8" font-family="Times,serif" font-size="14.00" fill="#000000">TagComponent</text>
</g>
<!-- TagComponent&#45;&gt;ContentCreatorModule -->
<g id="edge10" class="edge">
<title>TagComponent&#45;&gt;ContentCreatorModule</title>
<path fill="none" stroke="#000000" d="M945,-122.027C945,-138.3976 945,-160 945,-160 945,-160 1210.0478,-160 1210.0478,-160"/>
<polygon fill="#000000" stroke="#000000" points="1210.0478,-163.5001 1220.0478,-160 1210.0478,-156.5001 1210.0478,-163.5001"/>
</g>
<!-- UpdateQuestionComponent -->
<g id="node11" class="node">
<title>UpdateQuestionComponent</title>
<polygon fill="#ffffb3" stroke="#000000" points="875.3061,-122 702.6939,-122 702.6939,-86 875.3061,-86 875.3061,-122"/>
<text text-anchor="middle" x="789" y="-99.8" font-family="Times,serif" font-size="14.00" fill="#000000">UpdateQuestionComponent</text>
</g>
<!-- UpdateQuestionComponent&#45;&gt;ContentCreatorModule -->
<g id="edge11" class="edge">
<title>UpdateQuestionComponent&#45;&gt;ContentCreatorModule</title>
<path fill="none" stroke="#000000" d="M789,-122.302C789,-140.2699 789,-165 789,-165 789,-165 1209.9834,-165 1209.9834,-165"/>
<polygon fill="#000000" stroke="#000000" points="1209.9834,-168.5001 1219.9834,-165 1209.9834,-161.5001 1209.9834,-168.5001"/>
</g>
<!-- UpdateQuizComponent -->
<g id="node12" class="node">
<title>UpdateQuizComponent</title>
<polygon fill="#ffffb3" stroke="#000000" points="684.4706,-122 535.5294,-122 535.5294,-86 684.4706,-86 684.4706,-122"/>
<text text-anchor="middle" x="610" y="-99.8" font-family="Times,serif" font-size="14.00" fill="#000000">UpdateQuizComponent</text>
</g>
<!-- UpdateQuizComponent&#45;&gt;ContentCreatorModule -->
<g id="edge12" class="edge">
<title>UpdateQuizComponent&#45;&gt;ContentCreatorModule</title>
<path fill="none" stroke="#000000" d="M610,-122.1061C610,-141.3391 610,-169 610,-169 610,-169 1209.907,-169 1209.907,-169"/>
<polygon fill="#000000" stroke="#000000" points="1209.9071,-172.5001 1219.907,-169 1209.907,-165.5001 1209.9071,-172.5001"/>
</g>
<!-- UserDetailsComponent -->
<g id="node13" class="node">
<title>UserDetailsComponent</title>
<polygon fill="#ffffb3" stroke="#000000" points="517.9116,-122 370.0884,-122 370.0884,-86 517.9116,-86 517.9116,-122"/>
<text text-anchor="middle" x="444" y="-99.8" font-family="Times,serif" font-size="14.00" fill="#000000">UserDetailsComponent</text>
</g>
<!-- UserDetailsComponent&#45;&gt;ContentCreatorModule -->
<g id="edge13" class="edge">
<title>UserDetailsComponent&#45;&gt;ContentCreatorModule</title>
<path fill="none" stroke="#000000" d="M444,-122.0267C444,-142.7672 444,-174 444,-174 444,-174 1209.8799,-174 1209.8799,-174"/>
<polygon fill="#000000" stroke="#000000" points="1209.88,-177.5001 1219.8799,-174 1209.8799,-170.5001 1209.88,-177.5001"/>
</g>
<!-- SharedModule -->
<g id="node15" class="node">
<title>SharedModule</title>
<polygon fill="#8dd3c7" stroke="#000000" points="346.4231,-122 343.4231,-126 322.4231,-126 319.4231,-122 247.5769,-122 247.5769,-86 346.4231,-86 346.4231,-122"/>
<text text-anchor="middle" x="297" y="-99.8" font-family="Times,serif" font-size="14.00" fill="#000000">SharedModule</text>
</g>
<!-- SharedModule&#45;&gt;ContentCreatorModule -->
<g id="edge14" class="edge">
<title>SharedModule&#45;&gt;ContentCreatorModule</title>
<path fill="none" stroke="#000000" d="M297,-122.2921C297,-144.2057 297,-178 297,-178 297,-178 1209.7617,-178 1209.7617,-178"/>
<polygon fill="#000000" stroke="#000000" points="1209.7618,-181.5001 1219.7617,-178 1209.7617,-174.5001 1209.7618,-181.5001"/>
</g>
<!-- ContentCreatorService -->
<g id="node16" class="node">
<title>ContentCreatorService</title>
<ellipse fill="#fdb462" stroke="#000000" cx="124" cy="-104" rx="99.5539" ry="18"/>
<text text-anchor="middle" x="124" y="-99.8" font-family="Times,serif" font-size="14.00" fill="#000000">ContentCreatorService</text>
</g>
<!-- ContentCreatorService&#45;&gt;ContentCreatorModule -->
<g id="edge15" class="edge">
<title>ContentCreatorService&#45;&gt;ContentCreatorModule</title>
<path fill="none" stroke="#000000" d="M124,-122.3228C124,-145.6602 124,-183 124,-183 124,-183 1209.8738,-183 1209.8738,-183"/>
<polygon fill="#000000" stroke="#000000" points="1209.8738,-186.5001 1219.8738,-183 1209.8738,-179.5001 1209.8738,-186.5001"/>
</g>
</g>
</svg>
