<?xml version="1.0" encoding="UTF-8" standalone="no"?>
<!DOCTYPE svg PUBLIC "-//W3C//DTD SVG 1.1//EN"
 "http://www.w3.org/Graphics/SVG/1.1/DTD/svg11.dtd">
<!-- Generated by graphviz version 2.40.1 (20161225.0304)
 -->
<!-- Title: dependencies Pages: 1 -->
<svg width="1742pt" height="211pt"
 viewBox="0.00 0.00 1742.00 211.00" xmlns="http://www.w3.org/2000/svg" xmlns:xlink="http://www.w3.org/1999/xlink">
<g id="graph0" class="graph" transform="scale(1 1) rotate(0) translate(4 207)">
<title>dependencies</title>
<polygon fill="#ffffff" stroke="transparent" points="-4,4 -4,-207 1738,-207 1738,4 -4,4"/>
<text text-anchor="start" x="846.0091" y="-42.4" font-family="sans-serif" font-weight="bold" font-size="14.00" fill="#000000">Legend</text>
<polygon fill="#ffffb3" stroke="transparent" points="633,-10 633,-30 653,-30 653,-10 633,-10"/>
<text text-anchor="start" x="656.629" y="-15.4" font-family="sans-serif" font-size="14.00" fill="#000000"> &#160;Declarations</text>
<polygon fill="#8dd3c7" stroke="transparent" points="746,-10 746,-30 766,-30 766,-10 746,-10"/>
<text text-anchor="start" x="769.7251" y="-15.4" font-family="sans-serif" font-size="14.00" fill="#000000"> &#160;Module</text>
<polygon fill="#80b1d3" stroke="transparent" points="832,-10 832,-30 852,-30 852,-10 832,-10"/>
<text text-anchor="start" x="855.7812" y="-15.4" font-family="sans-serif" font-size="14.00" fill="#000000"> &#160;Bootstrap</text>
<polygon fill="#fdb462" stroke="transparent" points="929,-10 929,-30 949,-30 949,-10 929,-10"/>
<text text-anchor="start" x="952.6732" y="-15.4" font-family="sans-serif" font-size="14.00" fill="#000000"> &#160;Providers</text>
<polygon fill="#fb8072" stroke="transparent" points="1025,-10 1025,-30 1045,-30 1045,-10 1025,-10"/>
<text text-anchor="start" x="1048.7258" y="-15.4" font-family="sans-serif" font-size="14.00" fill="#000000"> &#160;Exports</text>
<g id="clust1" class="cluster">
<title>cluster_TestAdminModule</title>
<polygon fill="none" stroke="#000000" stroke-dasharray="1,5" points="8,-70 8,-195 1726,-195 1726,-70 8,-70"/>
</g>
<g id="clust2" class="cluster">
<title>cluster_TestAdminModule_declarations</title>
<polygon fill="none" stroke="#000000" points="324,-78 324,-130 1718,-130 1718,-78 324,-78"/>
</g>
<g id="clust11" class="cluster">
<title>cluster_TestAdminModule_imports</title>
<polygon fill="none" stroke="#000000" points="16,-78 16,-130 316,-130 316,-78 16,-78"/>
</g>
<!-- AddUser1Component -->
<g id="node1" class="node">
<title>AddUser1Component</title>
<polygon fill="#ffffb3" stroke="#000000" points="1710.3655,-122 1571.6345,-122 1571.6345,-86 1710.3655,-86 1710.3655,-122"/>
<text text-anchor="middle" x="1641" y="-99.8" font-family="Times,serif" font-size="14.00" fill="#000000">AddUser1Component</text>
</g>
<!-- TestAdminModule -->
<g id="node9" class="node">
<title>TestAdminModule</title>
<polygon fill="#8dd3c7" stroke="#000000" points="915.0409,-187 912.0409,-191 891.0409,-191 888.0409,-187 792.9591,-187 792.9591,-151 915.0409,-151 915.0409,-187"/>
<text text-anchor="middle" x="854" y="-164.8" font-family="Times,serif" font-size="14.00" fill="#000000">TestAdminModule</text>
</g>
<!-- AddUser1Component&#45;&gt;TestAdminModule -->
<g id="edge1" class="edge">
<title>AddUser1Component&#45;&gt;TestAdminModule</title>
<path fill="none" stroke="#000000" d="M1641,-122.0109C1641,-144.4852 1641,-180 1641,-180 1641,-180 925.0997,-180 925.0997,-180"/>
<polygon fill="#000000" stroke="#000000" points="925.0997,-176.5001 915.0997,-180 925.0997,-183.5001 925.0997,-176.5001"/>
</g>
<!-- AddUserComponent -->
<g id="node2" class="node">
<title>AddUserComponent</title>
<polygon fill="#ffffb3" stroke="#000000" points="1553.8655,-122 1422.1345,-122 1422.1345,-86 1553.8655,-86 1553.8655,-122"/>
<text text-anchor="middle" x="1488" y="-99.8" font-family="Times,serif" font-size="14.00" fill="#000000">AddUserComponent</text>
</g>
<!-- AddUserComponent&#45;&gt;TestAdminModule -->
<g id="edge2" class="edge">
<title>AddUserComponent&#45;&gt;TestAdminModule</title>
<path fill="none" stroke="#000000" d="M1488,-122.1289C1488,-142.5724 1488,-173 1488,-173 1488,-173 925.0783,-173 925.0783,-173"/>
<polygon fill="#000000" stroke="#000000" points="925.0784,-169.5001 915.0783,-173 925.0783,-176.5001 925.0784,-169.5001"/>
</g>
<!-- ArchivedScheduleComponent -->
<g id="node3" class="node">
<title>ArchivedScheduleComponent</title>
<polygon fill="#ffffb3" stroke="#000000" points="1404.2366,-122 1219.7634,-122 1219.7634,-86 1404.2366,-86 1404.2366,-122"/>
<text text-anchor="middle" x="1312" y="-99.8" font-family="Times,serif" font-size="14.00" fill="#000000">ArchivedScheduleComponent</text>
</g>
<!-- ArchivedScheduleComponent&#45;&gt;TestAdminModule -->
<g id="edge3" class="edge">
<title>ArchivedScheduleComponent&#45;&gt;TestAdminModule</title>
<path fill="none" stroke="#000000" d="M1312,-122.2667C1312,-140.5552 1312,-166 1312,-166 1312,-166 925.2927,-166 925.2927,-166"/>
<polygon fill="#000000" stroke="#000000" points="925.2927,-162.5001 915.2927,-166 925.2926,-169.5001 925.2927,-162.5001"/>
</g>
<!-- CreateScheduleComponent -->
<g id="node4" class="node">
<title>CreateScheduleComponent</title>
<polygon fill="#ffffb3" stroke="#000000" points="1201.6811,-122 1032.3189,-122 1032.3189,-86 1201.6811,-86 1201.6811,-122"/>
<text text-anchor="middle" x="1117" y="-99.8" font-family="Times,serif" font-size="14.00" fill="#000000">CreateScheduleComponent</text>
</g>
<!-- CreateScheduleComponent&#45;&gt;TestAdminModule -->
<g id="edge4" class="edge">
<title>CreateScheduleComponent&#45;&gt;TestAdminModule</title>
<path fill="none" stroke="#000000" d="M1117,-122.0091C1117,-138.0494 1117,-159 1117,-159 1117,-159 925.3299,-159 925.3299,-159"/>
<polygon fill="#000000" stroke="#000000" points="925.3299,-155.5001 915.3299,-159 925.3299,-162.5001 925.3299,-155.5001"/>
</g>
<!-- MainNav2Component -->
<g id="node5" class="node">
<title>MainNav2Component</title>
<polygon fill="#ffffb3" stroke="#000000" points="1014.7035,-122 873.2965,-122 873.2965,-86 1014.7035,-86 1014.7035,-122"/>
<text text-anchor="middle" x="944" y="-99.8" font-family="Times,serif" font-size="14.00" fill="#000000">MainNav2Component</text>
</g>
<!-- MainNav2Component&#45;&gt;TestAdminModule -->
<g id="edge5" class="edge">
<title>MainNav2Component&#45;&gt;TestAdminModule</title>
<path fill="none" stroke="#000000" d="M894.3342,-122.1061C894.3342,-122.1061 894.3342,-140.991 894.3342,-140.991"/>
<polygon fill="#000000" stroke="#000000" points="890.8342,-140.9909 894.3342,-150.991 897.8342,-140.991 890.8342,-140.9909"/>
</g>
<!-- RetrieveScheduleComponent -->
<g id="node6" class="node">
<title>RetrieveScheduleComponent</title>
<polygon fill="#ffffb3" stroke="#000000" points="855.0716,-122 674.9284,-122 674.9284,-86 855.0716,-86 855.0716,-122"/>
<text text-anchor="middle" x="765" y="-99.8" font-family="Times,serif" font-size="14.00" fill="#000000">RetrieveScheduleComponent</text>
</g>
<!-- RetrieveScheduleComponent&#45;&gt;TestAdminModule -->
<g id="edge6" class="edge">
<title>RetrieveScheduleComponent&#45;&gt;TestAdminModule</title>
<path fill="none" stroke="#000000" d="M823.8829,-122.1061C823.8829,-122.1061 823.8829,-140.991 823.8829,-140.991"/>
<polygon fill="#000000" stroke="#000000" points="820.383,-140.9909 823.8829,-150.991 827.383,-140.991 820.383,-140.9909"/>
</g>
<!-- TestAdminComponent -->
<g id="node7" class="node">
<title>TestAdminComponent</title>
<polygon fill="#ffffb3" stroke="#000000" points="657.323,-122 512.677,-122 512.677,-86 657.323,-86 657.323,-122"/>
<text text-anchor="middle" x="585" y="-99.8" font-family="Times,serif" font-size="14.00" fill="#000000">TestAdminComponent</text>
</g>
<!-- TestAdminComponent&#45;&gt;TestAdminModule -->
<g id="edge7" class="edge">
<title>TestAdminComponent&#45;&gt;TestAdminModule</title>
<path fill="none" stroke="#000000" d="M585,-122.0091C585,-138.0494 585,-159 585,-159 585,-159 782.6231,-159 782.6231,-159"/>
<polygon fill="#000000" stroke="#000000" points="782.6232,-162.5001 792.6231,-159 782.6231,-155.5001 782.6232,-162.5001"/>
</g>
<!-- ViewScheduleComponent -->
<g id="node8" class="node">
<title>ViewScheduleComponent</title>
<polygon fill="#ffffb3" stroke="#000000" points="494.4678,-122 331.5322,-122 331.5322,-86 494.4678,-86 494.4678,-122"/>
<text text-anchor="middle" x="413" y="-99.8" font-family="Times,serif" font-size="14.00" fill="#000000">ViewScheduleComponent</text>
</g>
<!-- ViewScheduleComponent&#45;&gt;TestAdminModule -->
<g id="edge8" class="edge">
<title>ViewScheduleComponent&#45;&gt;TestAdminModule</title>
<path fill="none" stroke="#000000" d="M413,-122.2667C413,-140.5552 413,-166 413,-166 413,-166 782.6808,-166 782.6808,-166"/>
<polygon fill="#000000" stroke="#000000" points="782.6809,-169.5001 792.6808,-166 782.6808,-162.5001 782.6809,-169.5001"/>
</g>
<!-- SharedModule -->
<g id="node10" class="node">
<title>SharedModule</title>
<polygon fill="#8dd3c7" stroke="#000000" points="308.4231,-122 305.4231,-126 284.4231,-126 281.4231,-122 209.5769,-122 209.5769,-86 308.4231,-86 308.4231,-122"/>
<text text-anchor="middle" x="259" y="-99.8" font-family="Times,serif" font-size="14.00" fill="#000000">SharedModule</text>
</g>
<!-- SharedModule&#45;&gt;TestAdminModule -->
<g id="edge9" class="edge">
<title>SharedModule&#45;&gt;TestAdminModule</title>
<path fill="none" stroke="#000000" d="M259,-122.1289C259,-142.5724 259,-173 259,-173 259,-173 782.8434,-173 782.8434,-173"/>
<polygon fill="#000000" stroke="#000000" points="782.8435,-176.5001 792.8434,-173 782.8434,-169.5001 782.8435,-176.5001"/>
</g>
<!-- TestAdminRoutingModule -->
<g id="node11" class="node">
<title>TestAdminRoutingModule</title>
<polygon fill="#8dd3c7" stroke="#000000" points="191.6581,-122 188.6581,-126 167.6581,-126 164.6581,-122 24.3419,-122 24.3419,-86 191.6581,-86 191.6581,-122"/>
<text text-anchor="middle" x="108" y="-99.8" font-family="Times,serif" font-size="14.00" fill="#000000">TestAdminRoutingModule</text>
</g>
<!-- TestAdminRoutingModule&#45;&gt;TestAdminModule -->
<g id="edge10" class="edge">
<title>TestAdminRoutingModule&#45;&gt;TestAdminModule</title>
<path fill="none" stroke="#000000" d="M108,-122.0109C108,-144.4852 108,-180 108,-180 108,-180 782.9517,-180 782.9517,-180"/>
<polygon fill="#000000" stroke="#000000" points="782.9517,-183.5001 792.9517,-180 782.9517,-176.5001 782.9517,-183.5001"/>
</g>
</g>
</svg>
