<?xml version="1.0" encoding="UTF-8" standalone="no"?>
<!DOCTYPE svg PUBLIC "-//W3C//DTD SVG 1.1//EN"
 "http://www.w3.org/Graphics/SVG/1.1/DTD/svg11.dtd">
<!-- Generated by graphviz version 2.40.1 (20161225.0304)
 -->
<!-- Title: dependencies Pages: 1 -->
<svg width="1556pt" height="211pt"
 viewBox="0.00 0.00 1556.00 211.00" xmlns="http://www.w3.org/2000/svg" xmlns:xlink="http://www.w3.org/1999/xlink">
<g id="graph0" class="graph" transform="scale(1 1) rotate(0) translate(4 207)">
<title>dependencies</title>
<polygon fill="#ffffff" stroke="transparent" points="-4,4 -4,-207 1552,-207 1552,4 -4,4"/>
<text text-anchor="start" x="753.0091" y="-42.4" font-family="sans-serif" font-weight="bold" font-size="14.00" fill="#000000">Legend</text>
<polygon fill="#ffffb3" stroke="transparent" points="540,-10 540,-30 560,-30 560,-10 540,-10"/>
<text text-anchor="start" x="563.629" y="-15.4" font-family="sans-serif" font-size="14.00" fill="#000000"> &#160;Declarations</text>
<polygon fill="#8dd3c7" stroke="transparent" points="653,-10 653,-30 673,-30 673,-10 653,-10"/>
<text text-anchor="start" x="676.7251" y="-15.4" font-family="sans-serif" font-size="14.00" fill="#000000"> &#160;Module</text>
<polygon fill="#80b1d3" stroke="transparent" points="739,-10 739,-30 759,-30 759,-10 739,-10"/>
<text text-anchor="start" x="762.7812" y="-15.4" font-family="sans-serif" font-size="14.00" fill="#000000"> &#160;Bootstrap</text>
<polygon fill="#fdb462" stroke="transparent" points="836,-10 836,-30 856,-30 856,-10 836,-10"/>
<text text-anchor="start" x="859.6732" y="-15.4" font-family="sans-serif" font-size="14.00" fill="#000000"> &#160;Providers</text>
<polygon fill="#fb8072" stroke="transparent" points="932,-10 932,-30 952,-30 952,-10 932,-10"/>
<text text-anchor="start" x="955.7258" y="-15.4" font-family="sans-serif" font-size="14.00" fill="#000000"> &#160;Exports</text>
<g id="clust1" class="cluster">
<title>cluster_TestAdminModule</title>
<polygon fill="none" stroke="#000000" stroke-dasharray="1,5" points="8,-70 8,-195 1540,-195 1540,-70 8,-70"/>
</g>
<g id="clust2" class="cluster">
<title>cluster_TestAdminModule_declarations</title>
<polygon fill="none" stroke="#000000" points="138,-78 138,-130 1532,-130 1532,-78 138,-78"/>
</g>
<g id="clust11" class="cluster">
<title>cluster_TestAdminModule_imports</title>
<polygon fill="none" stroke="#000000" points="16,-78 16,-130 130,-130 130,-78 16,-78"/>
</g>
<!-- AddUser1Component -->
<g id="node1" class="node">
<title>AddUser1Component</title>
<polygon fill="#ffffb3" stroke="#000000" points="1524.3655,-122 1385.6345,-122 1385.6345,-86 1524.3655,-86 1524.3655,-122"/>
<text text-anchor="middle" x="1455" y="-99.8" font-family="Times,serif" font-size="14.00" fill="#000000">AddUser1Component</text>
</g>
<!-- TestAdminModule -->
<g id="node9" class="node">
<title>TestAdminModule</title>
<polygon fill="#8dd3c7" stroke="#000000" points="819.0409,-187 816.0409,-191 795.0409,-191 792.0409,-187 696.9591,-187 696.9591,-151 819.0409,-151 819.0409,-187"/>
<text text-anchor="middle" x="758" y="-164.8" font-family="Times,serif" font-size="14.00" fill="#000000">TestAdminModule</text>
</g>
<!-- AddUser1Component&#45;&gt;TestAdminModule -->
<g id="edge1" class="edge">
<title>AddUser1Component&#45;&gt;TestAdminModule</title>
<path fill="none" stroke="#000000" d="M1455,-122.0109C1455,-144.4852 1455,-180 1455,-180 1455,-180 829.2432,-180 829.2432,-180"/>
<polygon fill="#000000" stroke="#000000" points="829.2433,-176.5001 819.2432,-180 829.2432,-183.5001 829.2433,-176.5001"/>
</g>
<!-- AddUserComponent -->
<g id="node2" class="node">
<title>AddUserComponent</title>
<polygon fill="#ffffb3" stroke="#000000" points="1367.8655,-122 1236.1345,-122 1236.1345,-86 1367.8655,-86 1367.8655,-122"/>
<text text-anchor="middle" x="1302" y="-99.8" font-family="Times,serif" font-size="14.00" fill="#000000">AddUserComponent</text>
</g>
<!-- AddUserComponent&#45;&gt;TestAdminModule -->
<g id="edge2" class="edge">
<title>AddUserComponent&#45;&gt;TestAdminModule</title>
<path fill="none" stroke="#000000" d="M1302,-122.1289C1302,-142.5724 1302,-173 1302,-173 1302,-173 829.083,-173 829.083,-173"/>
<polygon fill="#000000" stroke="#000000" points="829.083,-169.5001 819.083,-173 829.083,-176.5001 829.083,-169.5001"/>
</g>
<!-- ArchivedScheduleComponent -->
<g id="node3" class="node">
<title>ArchivedScheduleComponent</title>
<polygon fill="#ffffb3" stroke="#000000" points="1218.2366,-122 1033.7634,-122 1033.7634,-86 1218.2366,-86 1218.2366,-122"/>
<text text-anchor="middle" x="1126" y="-99.8" font-family="Times,serif" font-size="14.00" fill="#000000">ArchivedScheduleComponent</text>
</g>
<!-- ArchivedScheduleComponent&#45;&gt;TestAdminModule -->
<g id="edge3" class="edge">
<title>ArchivedScheduleComponent&#45;&gt;TestAdminModule</title>
<path fill="none" stroke="#000000" d="M1126,-122.2667C1126,-140.5552 1126,-166 1126,-166 1126,-166 829.1808,-166 829.1808,-166"/>
<polygon fill="#000000" stroke="#000000" points="829.1808,-162.5001 819.1808,-166 829.1808,-169.5001 829.1808,-162.5001"/>
</g>
<!-- CreateScheduleComponent -->
<g id="node4" class="node">
<title>CreateScheduleComponent</title>
<polygon fill="#ffffb3" stroke="#000000" points="1015.6811,-122 846.3189,-122 846.3189,-86 1015.6811,-86 1015.6811,-122"/>
<text text-anchor="middle" x="931" y="-99.8" font-family="Times,serif" font-size="14.00" fill="#000000">CreateScheduleComponent</text>
</g>
<!-- CreateScheduleComponent&#45;&gt;TestAdminModule -->
<g id="edge4" class="edge">
<title>CreateScheduleComponent&#45;&gt;TestAdminModule</title>
<path fill="none" stroke="#000000" d="M931,-122.0091C931,-138.0494 931,-159 931,-159 931,-159 829.4804,-159 829.4804,-159"/>
<polygon fill="#000000" stroke="#000000" points="829.4805,-155.5001 819.4804,-159 829.4804,-162.5001 829.4805,-155.5001"/>
</g>
<!-- MainNav2Component -->
<g id="node5" class="node">
<title>MainNav2Component</title>
<polygon fill="#ffffb3" stroke="#000000" points="828.7035,-122 687.2965,-122 687.2965,-86 828.7035,-86 828.7035,-122"/>
<text text-anchor="middle" x="758" y="-99.8" font-family="Times,serif" font-size="14.00" fill="#000000">MainNav2Component</text>
</g>
<!-- MainNav2Component&#45;&gt;TestAdminModule -->
<g id="edge5" class="edge">
<title>MainNav2Component&#45;&gt;TestAdminModule</title>
<path fill="none" stroke="#000000" d="M758,-122.1061C758,-122.1061 758,-140.991 758,-140.991"/>
<polygon fill="#000000" stroke="#000000" points="754.5001,-140.9909 758,-150.991 761.5001,-140.991 754.5001,-140.9909"/>
</g>
<!-- RetrieveScheduleComponent -->
<g id="node6" class="node">
<title>RetrieveScheduleComponent</title>
<polygon fill="#ffffb3" stroke="#000000" points="669.0716,-122 488.9284,-122 488.9284,-86 669.0716,-86 669.0716,-122"/>
<text text-anchor="middle" x="579" y="-99.8" font-family="Times,serif" font-size="14.00" fill="#000000">RetrieveScheduleComponent</text>
</g>
<!-- RetrieveScheduleComponent&#45;&gt;TestAdminModule -->
<g id="edge6" class="edge">
<title>RetrieveScheduleComponent&#45;&gt;TestAdminModule</title>
<path fill="none" stroke="#000000" d="M579,-122.0091C579,-138.0494 579,-159 579,-159 579,-159 686.899,-159 686.899,-159"/>
<polygon fill="#000000" stroke="#000000" points="686.899,-162.5001 696.899,-159 686.899,-155.5001 686.899,-162.5001"/>
</g>
<!-- TestAdminComponent -->
<g id="node7" class="node">
<title>TestAdminComponent</title>
<polygon fill="#ffffb3" stroke="#000000" points="471.323,-122 326.677,-122 326.677,-86 471.323,-86 471.323,-122"/>
<text text-anchor="middle" x="399" y="-99.8" font-family="Times,serif" font-size="14.00" fill="#000000">TestAdminComponent</text>
</g>
<!-- TestAdminComponent&#45;&gt;TestAdminModule -->
<g id="edge7" class="edge">
<title>TestAdminComponent&#45;&gt;TestAdminModule</title>
<path fill="none" stroke="#000000" d="M399,-122.2667C399,-140.5552 399,-166 399,-166 399,-166 686.6936,-166 686.6936,-166"/>
<polygon fill="#000000" stroke="#000000" points="686.6936,-169.5001 696.6936,-166 686.6936,-162.5001 686.6936,-169.5001"/>
</g>
<!-- ViewScheduleComponent -->
<g id="node8" class="node">
<title>ViewScheduleComponent</title>
<polygon fill="#ffffb3" stroke="#000000" points="308.4678,-122 145.5322,-122 145.5322,-86 308.4678,-86 308.4678,-122"/>
<text text-anchor="middle" x="227" y="-99.8" font-family="Times,serif" font-size="14.00" fill="#000000">ViewScheduleComponent</text>
</g>
<!-- ViewScheduleComponent&#45;&gt;TestAdminModule -->
<g id="edge8" class="edge">
<title>ViewScheduleComponent&#45;&gt;TestAdminModule</title>
<path fill="none" stroke="#000000" d="M227,-122.1289C227,-142.5724 227,-173 227,-173 227,-173 686.8284,-173 686.8284,-173"/>
<polygon fill="#000000" stroke="#000000" points="686.8284,-176.5001 696.8284,-173 686.8284,-169.5001 686.8284,-176.5001"/>
</g>
<!-- SharedModule -->
<g id="node10" class="node">
<title>SharedModule</title>
<polygon fill="#8dd3c7" stroke="#000000" points="122.4231,-122 119.4231,-126 98.4231,-126 95.4231,-122 23.5769,-122 23.5769,-86 122.4231,-86 122.4231,-122"/>
<text text-anchor="middle" x="73" y="-99.8" font-family="Times,serif" font-size="14.00" fill="#000000">SharedModule</text>
</g>
<!-- SharedModule&#45;&gt;TestAdminModule -->
<g id="edge9" class="edge">
<title>SharedModule&#45;&gt;TestAdminModule</title>
<path fill="none" stroke="#000000" d="M73,-122.0109C73,-144.4852 73,-180 73,-180 73,-180 686.9097,-180 686.9097,-180"/>
<polygon fill="#000000" stroke="#000000" points="686.9097,-183.5001 696.9097,-180 686.9097,-176.5001 686.9097,-183.5001"/>
</g>
</g>
</svg>
