<?xml version="1.0" encoding="UTF-8" standalone="no"?>
<!DOCTYPE svg PUBLIC "-//W3C//DTD SVG 1.1//EN"
 "http://www.w3.org/Graphics/SVG/1.1/DTD/svg11.dtd">
<!-- Generated by graphviz version 2.40.1 (20161225.0304)
 -->
<!-- Title: dependencies Pages: 1 -->
<svg width="504pt" height="284pt"
 viewBox="0.00 0.00 504.00 284.00" xmlns="http://www.w3.org/2000/svg" xmlns:xlink="http://www.w3.org/1999/xlink">
<g id="graph0" class="graph" transform="scale(1 1) rotate(0) translate(4 280)">
<title>dependencies</title>
<polygon fill="#ffffff" stroke="transparent" points="-4,4 -4,-280 500,-280 500,4 -4,4"/>
<text text-anchor="start" x="227.0091" y="-42.4" font-family="sans-serif" font-weight="bold" font-size="14.00" fill="#000000">Legend</text>
<polygon fill="#ffffb3" stroke="transparent" points="14,-10 14,-30 34,-30 34,-10 14,-10"/>
<text text-anchor="start" x="37.629" y="-15.4" font-family="sans-serif" font-size="14.00" fill="#000000"> &#160;Declarations</text>
<polygon fill="#8dd3c7" stroke="transparent" points="127,-10 127,-30 147,-30 147,-10 127,-10"/>
<text text-anchor="start" x="150.7251" y="-15.4" font-family="sans-serif" font-size="14.00" fill="#000000"> &#160;Module</text>
<polygon fill="#80b1d3" stroke="transparent" points="213,-10 213,-30 233,-30 233,-10 213,-10"/>
<text text-anchor="start" x="236.7812" y="-15.4" font-family="sans-serif" font-size="14.00" fill="#000000"> &#160;Bootstrap</text>
<polygon fill="#fdb462" stroke="transparent" points="310,-10 310,-30 330,-30 330,-10 310,-10"/>
<text text-anchor="start" x="333.6732" y="-15.4" font-family="sans-serif" font-size="14.00" fill="#000000"> &#160;Providers</text>
<polygon fill="#fb8072" stroke="transparent" points="406,-10 406,-30 426,-30 426,-10 406,-10"/>
<text text-anchor="start" x="429.7258" y="-15.4" font-family="sans-serif" font-size="14.00" fill="#000000"> &#160;Exports</text>
<g id="clust1" class="cluster">
<title>cluster_SharedModule</title>
<polygon fill="none" stroke="#000000" stroke-dasharray="1,5" points="64,-70 64,-268 432,-268 432,-70 64,-70"/>
</g>
<g id="clust2" class="cluster">
<title>cluster_SharedModule_declarations</title>
<polygon fill="none" stroke="#000000" points="288,-78 288,-130 424,-130 424,-78 288,-78"/>
</g>
<g id="clust5" class="cluster">
<title>cluster_SharedModule_exports</title>
<polygon fill="none" stroke="#000000" points="195,-208 195,-260 335,-260 335,-208 195,-208"/>
</g>
<g id="clust7" class="cluster">
<title>cluster_SharedModule_providers</title>
<polygon fill="none" stroke="#000000" points="72,-78 72,-130 280,-130 280,-78 72,-78"/>
</g>
<!-- LoaderComponent -->
<g id="node1" class="node">
<title>LoaderComponent</title>
<polygon fill="#ffffb3" stroke="#000000" points="416.4748,-122 295.5252,-122 295.5252,-86 416.4748,-86 416.4748,-122"/>
<text text-anchor="middle" x="356" y="-99.8" font-family="Times,serif" font-size="14.00" fill="#000000">LoaderComponent</text>
</g>
<!-- SharedModule -->
<g id="node2" class="node">
<title>SharedModule</title>
<polygon fill="#8dd3c7" stroke="#000000" points="314.4231,-187 311.4231,-191 290.4231,-191 287.4231,-187 215.5769,-187 215.5769,-151 314.4231,-151 314.4231,-187"/>
<text text-anchor="middle" x="265" y="-164.8" font-family="Times,serif" font-size="14.00" fill="#000000">SharedModule</text>
</g>
<!-- LoaderComponent&#45;&gt;SharedModule -->
<g id="edge1" class="edge">
<title>LoaderComponent&#45;&gt;SharedModule</title>
<path fill="none" stroke="#000000" d="M304.8619,-122.1061C304.8619,-122.1061 304.8619,-140.991 304.8619,-140.991"/>
<polygon fill="#000000" stroke="#000000" points="301.3619,-140.9909 304.8619,-150.991 308.3619,-140.991 301.3619,-140.9909"/>
</g>
<!-- LoaderComponent  -->
<g id="node3" class="node">
<title>LoaderComponent </title>
<polygon fill="#fb8072" stroke="#000000" points="327.4757,-252 202.5243,-252 202.5243,-216 327.4757,-216 327.4757,-252"/>
<text text-anchor="middle" x="265" y="-229.8" font-family="Times,serif" font-size="14.00" fill="#000000">LoaderComponent </text>
</g>
<!-- SharedModule&#45;&gt;LoaderComponent  -->
<g id="edge2" class="edge">
<title>SharedModule&#45;&gt;LoaderComponent </title>
<path fill="none" stroke="#000000" stroke-dasharray="5,2" d="M265,-187.1061C265,-187.1061 265,-205.991 265,-205.991"/>
<polygon fill="#000000" stroke="#000000" points="261.5001,-205.9909 265,-215.991 268.5001,-205.991 261.5001,-205.9909"/>
</g>
<!-- LoaderServiceService -->
<g id="node4" class="node">
<title>LoaderServiceService</title>
<ellipse fill="#fdb462" stroke="#000000" cx="176" cy="-104" rx="96.0842" ry="18"/>
<text text-anchor="middle" x="176" y="-99.8" font-family="Times,serif" font-size="14.00" fill="#000000">LoaderServiceService</text>
</g>
<!-- LoaderServiceService&#45;&gt;SharedModule -->
<g id="edge3" class="edge">
<title>LoaderServiceService&#45;&gt;SharedModule</title>
<path fill="none" stroke="#000000" d="M244.0404,-116.8419C244.0404,-116.8419 244.0404,-140.5231 244.0404,-140.5231"/>
<polygon fill="#000000" stroke="#000000" points="240.5405,-140.523 244.0404,-150.5231 247.5405,-140.5231 240.5405,-140.523"/>
</g>
</g>
</svg>
