<?xml version="1.0" encoding="UTF-8" standalone="no"?>
<!DOCTYPE svg PUBLIC "-//W3C//DTD SVG 1.1//EN"
 "http://www.w3.org/Graphics/SVG/1.1/DTD/svg11.dtd">
<!-- Generated by graphviz version 2.40.1 (20161225.0304)
 -->
<!-- Title: dependencies Pages: 1 -->
<svg width="1622pt" height="211pt"
 viewBox="0.00 0.00 1622.00 211.00" xmlns="http://www.w3.org/2000/svg" xmlns:xlink="http://www.w3.org/1999/xlink">
<g id="graph0" class="graph" transform="scale(1 1) rotate(0) translate(4 207)">
<title>dependencies</title>
<polygon fill="#ffffff" stroke="transparent" points="-4,4 -4,-207 1618,-207 1618,4 -4,4"/>
<text text-anchor="start" x="786.0091" y="-42.4" font-family="sans-serif" font-weight="bold" font-size="14.00" fill="#000000">Legend</text>
<polygon fill="#ffffb3" stroke="transparent" points="573,-10 573,-30 593,-30 593,-10 573,-10"/>
<text text-anchor="start" x="596.629" y="-15.4" font-family="sans-serif" font-size="14.00" fill="#000000"> &#160;Declarations</text>
<polygon fill="#8dd3c7" stroke="transparent" points="686,-10 686,-30 706,-30 706,-10 686,-10"/>
<text text-anchor="start" x="709.7251" y="-15.4" font-family="sans-serif" font-size="14.00" fill="#000000"> &#160;Module</text>
<polygon fill="#80b1d3" stroke="transparent" points="772,-10 772,-30 792,-30 792,-10 772,-10"/>
<text text-anchor="start" x="795.7812" y="-15.4" font-family="sans-serif" font-size="14.00" fill="#000000"> &#160;Bootstrap</text>
<polygon fill="#fdb462" stroke="transparent" points="869,-10 869,-30 889,-30 889,-10 869,-10"/>
<text text-anchor="start" x="892.6732" y="-15.4" font-family="sans-serif" font-size="14.00" fill="#000000"> &#160;Providers</text>
<polygon fill="#fb8072" stroke="transparent" points="965,-10 965,-30 985,-30 985,-10 965,-10"/>
<text text-anchor="start" x="988.7258" y="-15.4" font-family="sans-serif" font-size="14.00" fill="#000000"> &#160;Exports</text>
<g id="clust1" class="cluster">
<title>cluster_ReportingUserModule</title>
<polygon fill="none" stroke="#000000" stroke-dasharray="1,5" points="8,-70 8,-195 1606,-195 1606,-70 8,-70"/>
</g>
<g id="clust2" class="cluster">
<title>cluster_ReportingUserModule_declarations</title>
<polygon fill="none" stroke="#000000" points="344,-78 344,-130 1598,-130 1598,-78 344,-78"/>
</g>
<g id="clust10" class="cluster">
<title>cluster_ReportingUserModule_imports</title>
<polygon fill="none" stroke="#000000" points="16,-78 16,-130 336,-130 336,-78 16,-78"/>
</g>
<!-- AnalyticsByQuizComponent -->
<g id="node1" class="node">
<title>AnalyticsByQuizComponent</title>
<polygon fill="#ffffb3" stroke="#000000" points="1590.0336,-122 1411.9664,-122 1411.9664,-86 1590.0336,-86 1590.0336,-122"/>
<text text-anchor="middle" x="1501" y="-99.8" font-family="Times,serif" font-size="14.00" fill="#000000">AnalyticsByQuizComponent</text>
</g>
<!-- ReportingUserModule -->
<g id="node8" class="node">
<title>ReportingUserModule</title>
<polygon fill="#8dd3c7" stroke="#000000" points="869.9692,-187 866.9692,-191 845.9692,-191 842.9692,-187 728.0308,-187 728.0308,-151 869.9692,-151 869.9692,-187"/>
<text text-anchor="middle" x="799" y="-164.8" font-family="Times,serif" font-size="14.00" fill="#000000">ReportingUserModule</text>
</g>
<!-- AnalyticsByQuizComponent&#45;&gt;ReportingUserModule -->
<g id="edge1" class="edge">
<title>AnalyticsByQuizComponent&#45;&gt;ReportingUserModule</title>
<path fill="none" stroke="#000000" d="M1501,-122.0109C1501,-144.4852 1501,-180 1501,-180 1501,-180 880.1747,-180 880.1747,-180"/>
<polygon fill="#000000" stroke="#000000" points="880.1748,-176.5001 870.1747,-180 880.1747,-183.5001 880.1748,-176.5001"/>
</g>
<!-- AnalyticsByTagComponent -->
<g id="node2" class="node">
<title>AnalyticsByTagComponent</title>
<polygon fill="#ffffb3" stroke="#000000" points="1393.5884,-122 1220.4116,-122 1220.4116,-86 1393.5884,-86 1393.5884,-122"/>
<text text-anchor="middle" x="1307" y="-99.8" font-family="Times,serif" font-size="14.00" fill="#000000">AnalyticsByTagComponent</text>
</g>
<!-- AnalyticsByTagComponent&#45;&gt;ReportingUserModule -->
<g id="edge2" class="edge">
<title>AnalyticsByTagComponent&#45;&gt;ReportingUserModule</title>
<path fill="none" stroke="#000000" d="M1307,-122.1289C1307,-142.5724 1307,-173 1307,-173 1307,-173 880.1701,-173 880.1701,-173"/>
<polygon fill="#000000" stroke="#000000" points="880.1702,-169.5001 870.1701,-173 880.1701,-176.5001 880.1702,-169.5001"/>
</g>
<!-- AnalyticsByUserComponent -->
<g id="node3" class="node">
<title>AnalyticsByUserComponent</title>
<polygon fill="#ffffb3" stroke="#000000" points="1202.7478,-122 1025.2522,-122 1025.2522,-86 1202.7478,-86 1202.7478,-122"/>
<text text-anchor="middle" x="1114" y="-99.8" font-family="Times,serif" font-size="14.00" fill="#000000">AnalyticsByUserComponent</text>
</g>
<!-- AnalyticsByUserComponent&#45;&gt;ReportingUserModule -->
<g id="edge3" class="edge">
<title>AnalyticsByUserComponent&#45;&gt;ReportingUserModule</title>
<path fill="none" stroke="#000000" d="M1114,-122.2667C1114,-140.5552 1114,-166 1114,-166 1114,-166 880.0849,-166 880.0849,-166"/>
<polygon fill="#000000" stroke="#000000" points="880.085,-162.5001 870.0849,-166 880.0849,-169.5001 880.085,-162.5001"/>
</g>
<!-- DetailsComponent -->
<g id="node4" class="node">
<title>DetailsComponent</title>
<polygon fill="#ffffb3" stroke="#000000" points="1007.4846,-122 886.5154,-122 886.5154,-86 1007.4846,-86 1007.4846,-122"/>
<text text-anchor="middle" x="947" y="-99.8" font-family="Times,serif" font-size="14.00" fill="#000000">DetailsComponent</text>
</g>
<!-- DetailsComponent&#45;&gt;ReportingUserModule -->
<g id="edge4" class="edge">
<title>DetailsComponent&#45;&gt;ReportingUserModule</title>
<path fill="none" stroke="#000000" d="M947,-122.0091C947,-138.0494 947,-159 947,-159 947,-159 880.3989,-159 880.3989,-159"/>
<polygon fill="#000000" stroke="#000000" points="880.3989,-155.5001 870.3989,-159 880.3989,-162.5001 880.3989,-155.5001"/>
</g>
<!-- Mainnav4Component -->
<g id="node5" class="node">
<title>Mainnav4Component</title>
<polygon fill="#ffffb3" stroke="#000000" points="868.0968,-122 729.9032,-122 729.9032,-86 868.0968,-86 868.0968,-122"/>
<text text-anchor="middle" x="799" y="-99.8" font-family="Times,serif" font-size="14.00" fill="#000000">Mainnav4Component</text>
</g>
<!-- Mainnav4Component&#45;&gt;ReportingUserModule -->
<g id="edge5" class="edge">
<title>Mainnav4Component&#45;&gt;ReportingUserModule</title>
<path fill="none" stroke="#000000" d="M799,-122.1061C799,-122.1061 799,-140.991 799,-140.991"/>
<polygon fill="#000000" stroke="#000000" points="795.5001,-140.9909 799,-150.991 802.5001,-140.991 795.5001,-140.9909"/>
</g>
<!-- ReportingUserComponent -->
<g id="node6" class="node">
<title>ReportingUserComponent</title>
<polygon fill="#ffffb3" stroke="#000000" points="711.752,-122 548.248,-122 548.248,-86 711.752,-86 711.752,-122"/>
<text text-anchor="middle" x="630" y="-99.8" font-family="Times,serif" font-size="14.00" fill="#000000">ReportingUserComponent</text>
</g>
<!-- ReportingUserComponent&#45;&gt;ReportingUserModule -->
<g id="edge6" class="edge">
<title>ReportingUserComponent&#45;&gt;ReportingUserModule</title>
<path fill="none" stroke="#000000" d="M630,-122.0091C630,-138.0494 630,-159 630,-159 630,-159 717.8186,-159 717.8186,-159"/>
<polygon fill="#000000" stroke="#000000" points="717.8186,-162.5001 727.8186,-159 717.8186,-155.5001 717.8186,-162.5001"/>
</g>
<!-- ViewUserDetailsComponent -->
<g id="node7" class="node">
<title>ViewUserDetailsComponent</title>
<polygon fill="#ffffb3" stroke="#000000" points="529.7296,-122 352.2704,-122 352.2704,-86 529.7296,-86 529.7296,-122"/>
<text text-anchor="middle" x="441" y="-99.8" font-family="Times,serif" font-size="14.00" fill="#000000">ViewUserDetailsComponent</text>
</g>
<!-- ViewUserDetailsComponent&#45;&gt;ReportingUserModule -->
<g id="edge7" class="edge">
<title>ViewUserDetailsComponent&#45;&gt;ReportingUserModule</title>
<path fill="none" stroke="#000000" d="M441,-122.2667C441,-140.5552 441,-166 441,-166 441,-166 717.8427,-166 717.8427,-166"/>
<polygon fill="#000000" stroke="#000000" points="717.8427,-169.5001 727.8427,-166 717.8427,-162.5001 717.8427,-169.5001"/>
</g>
<!-- ReportingUserRoutingModule -->
<g id="node9" class="node">
<title>ReportingUserRoutingModule</title>
<polygon fill="#8dd3c7" stroke="#000000" points="327.587,-122 324.587,-126 303.587,-126 300.587,-122 140.413,-122 140.413,-86 327.587,-86 327.587,-122"/>
<text text-anchor="middle" x="234" y="-99.8" font-family="Times,serif" font-size="14.00" fill="#000000">ReportingUserRoutingModule</text>
</g>
<!-- ReportingUserRoutingModule&#45;&gt;ReportingUserModule -->
<g id="edge8" class="edge">
<title>ReportingUserRoutingModule&#45;&gt;ReportingUserModule</title>
<path fill="none" stroke="#000000" d="M234,-122.1289C234,-142.5724 234,-173 234,-173 234,-173 718.0145,-173 718.0145,-173"/>
<polygon fill="#000000" stroke="#000000" points="718.0145,-176.5001 728.0145,-173 718.0144,-169.5001 718.0145,-176.5001"/>
</g>
<!-- SharedModule -->
<g id="node10" class="node">
<title>SharedModule</title>
<polygon fill="#8dd3c7" stroke="#000000" points="122.4231,-122 119.4231,-126 98.4231,-126 95.4231,-122 23.5769,-122 23.5769,-86 122.4231,-86 122.4231,-122"/>
<text text-anchor="middle" x="73" y="-99.8" font-family="Times,serif" font-size="14.00" fill="#000000">SharedModule</text>
</g>
<!-- SharedModule&#45;&gt;ReportingUserModule -->
<g id="edge9" class="edge">
<title>SharedModule&#45;&gt;ReportingUserModule</title>
<path fill="none" stroke="#000000" d="M73,-122.0109C73,-144.4852 73,-180 73,-180 73,-180 717.7341,-180 717.7341,-180"/>
<polygon fill="#000000" stroke="#000000" points="717.7342,-183.5001 727.7341,-180 717.7341,-176.5001 717.7342,-183.5001"/>
</g>
</g>
</svg>
