<?xml version="1.0" encoding="UTF-8" standalone="no"?>
<!DOCTYPE svg PUBLIC "-//W3C//DTD SVG 1.1//EN"
 "http://www.w3.org/Graphics/SVG/1.1/DTD/svg11.dtd">
<!-- Generated by graphviz version 2.40.1 (20161225.0304)
 -->
<!-- Title: dependencies Pages: 1 -->
<svg width="1934pt" height="284pt"
 viewBox="0.00 0.00 1934.00 284.00" xmlns="http://www.w3.org/2000/svg" xmlns:xlink="http://www.w3.org/1999/xlink">
<g id="graph0" class="graph" transform="scale(1 1) rotate(0) translate(4 280)">
<title>dependencies</title>
<polygon fill="#ffffff" stroke="transparent" points="-4,4 -4,-280 1930,-280 1930,4 -4,4"/>
<text text-anchor="start" x="942.0091" y="-42.4" font-family="sans-serif" font-weight="bold" font-size="14.00" fill="#000000">Legend</text>
<polygon fill="#ffffb3" stroke="transparent" points="729,-10 729,-30 749,-30 749,-10 729,-10"/>
<text text-anchor="start" x="752.629" y="-15.4" font-family="sans-serif" font-size="14.00" fill="#000000"> &#160;Declarations</text>
<polygon fill="#8dd3c7" stroke="transparent" points="842,-10 842,-30 862,-30 862,-10 842,-10"/>
<text text-anchor="start" x="865.7251" y="-15.4" font-family="sans-serif" font-size="14.00" fill="#000000"> &#160;Module</text>
<polygon fill="#80b1d3" stroke="transparent" points="928,-10 928,-30 948,-30 948,-10 928,-10"/>
<text text-anchor="start" x="951.7812" y="-15.4" font-family="sans-serif" font-size="14.00" fill="#000000"> &#160;Bootstrap</text>
<polygon fill="#fdb462" stroke="transparent" points="1025,-10 1025,-30 1045,-30 1045,-10 1025,-10"/>
<text text-anchor="start" x="1048.6732" y="-15.4" font-family="sans-serif" font-size="14.00" fill="#000000"> &#160;Providers</text>
<polygon fill="#fb8072" stroke="transparent" points="1121,-10 1121,-30 1141,-30 1141,-10 1121,-10"/>
<text text-anchor="start" x="1144.7258" y="-15.4" font-family="sans-serif" font-size="14.00" fill="#000000"> &#160;Exports</text>
<g id="clust1" class="cluster">
<title>cluster_AppModule</title>
<polygon fill="none" stroke="#000000" stroke-dasharray="1,5" points="8,-70 8,-268 1918,-268 1918,-70 8,-70"/>
</g>
<g id="clust2" class="cluster">
<title>cluster_AppModule_declarations</title>
<polygon fill="none" stroke="#000000" points="1337,-78 1337,-130 1910,-130 1910,-78 1337,-78"/>
</g>
<g id="clust7" class="cluster">
<title>cluster_AppModule_imports</title>
<polygon fill="none" stroke="#000000" points="634,-78 634,-130 1329,-130 1329,-78 634,-78"/>
</g>
<g id="clust9" class="cluster">
<title>cluster_AppModule_bootstrap</title>
<polygon fill="none" stroke="#000000" points="980,-208 980,-260 1104,-260 1104,-208 980,-208"/>
</g>
<g id="clust10" class="cluster">
<title>cluster_AppModule_providers</title>
<polygon fill="none" stroke="#000000" points="16,-78 16,-130 626,-130 626,-78 16,-78"/>
</g>
<!-- AppComponent -->
<g id="node1" class="node">
<title>AppComponent</title>
<polygon fill="#ffffb3" stroke="#000000" points="1901.9399,-122 1796.0601,-122 1796.0601,-86 1901.9399,-86 1901.9399,-122"/>
<text text-anchor="middle" x="1849" y="-99.8" font-family="Times,serif" font-size="14.00" fill="#000000">AppComponent</text>
</g>
<!-- AppModule -->
<g id="node5" class="node">
<title>AppModule</title>
<polygon fill="#8dd3c7" stroke="#000000" points="1083.6571,-187 1080.6571,-191 1059.6571,-191 1056.6571,-187 1000.3429,-187 1000.3429,-151 1083.6571,-151 1083.6571,-187"/>
<text text-anchor="middle" x="1042" y="-164.8" font-family="Times,serif" font-size="14.00" fill="#000000">AppModule</text>
</g>
<!-- AppComponent&#45;&gt;AppModule -->
<g id="edge1" class="edge">
<title>AppComponent&#45;&gt;AppModule</title>
<path fill="none" stroke="#000000" d="M1849,-122.2479C1849,-145.0179 1849,-181 1849,-181 1849,-181 1093.6885,-181 1093.6885,-181"/>
<polygon fill="#000000" stroke="#000000" points="1093.6885,-177.5001 1083.6885,-181 1093.6884,-184.5001 1093.6885,-177.5001"/>
</g>
<!-- HomeComponent -->
<g id="node2" class="node">
<title>HomeComponent</title>
<polygon fill="#ffffb3" stroke="#000000" points="1778.5451,-122 1663.4549,-122 1663.4549,-86 1778.5451,-86 1778.5451,-122"/>
<text text-anchor="middle" x="1721" y="-99.8" font-family="Times,serif" font-size="14.00" fill="#000000">HomeComponent</text>
</g>
<!-- HomeComponent&#45;&gt;AppModule -->
<g id="edge2" class="edge">
<title>HomeComponent&#45;&gt;AppModule</title>
<path fill="none" stroke="#000000" d="M1721,-122.2843C1721,-143.3211 1721,-175 1721,-175 1721,-175 1093.7069,-175 1093.7069,-175"/>
<polygon fill="#000000" stroke="#000000" points="1093.7069,-171.5001 1083.7069,-175 1093.7069,-178.5001 1093.7069,-171.5001"/>
</g>
<!-- HttpInterceptorComponent -->
<g id="node3" class="node">
<title>HttpInterceptorComponent</title>
<polygon fill="#ffffb3" stroke="#000000" points="1644.6274,-122 1477.3726,-122 1477.3726,-86 1644.6274,-86 1644.6274,-122"/>
<text text-anchor="middle" x="1561" y="-99.8" font-family="Times,serif" font-size="14.00" fill="#000000">HttpInterceptorComponent</text>
</g>
<!-- HttpInterceptorComponent&#45;&gt;AppModule -->
<g id="edge3" class="edge">
<title>HttpInterceptorComponent&#45;&gt;AppModule</title>
<path fill="none" stroke="#000000" d="M1561,-122.1061C1561,-141.3391 1561,-169 1561,-169 1561,-169 1094.0323,-169 1094.0323,-169"/>
<polygon fill="#000000" stroke="#000000" points="1094.0324,-165.5001 1084.0323,-169 1094.0323,-172.5001 1094.0324,-165.5001"/>
</g>
<!-- LoginComponent -->
<g id="node4" class="node">
<title>LoginComponent</title>
<polygon fill="#ffffb3" stroke="#000000" points="1459.2758,-122 1344.7242,-122 1344.7242,-86 1459.2758,-86 1459.2758,-122"/>
<text text-anchor="middle" x="1402" y="-99.8" font-family="Times,serif" font-size="14.00" fill="#000000">LoginComponent</text>
</g>
<!-- LoginComponent&#45;&gt;AppModule -->
<g id="edge4" class="edge">
<title>LoginComponent&#45;&gt;AppModule</title>
<path fill="none" stroke="#000000" d="M1402,-122.0225C1402,-139.3734 1402,-163 1402,-163 1402,-163 1094.0011,-163 1094.0011,-163"/>
<polygon fill="#000000" stroke="#000000" points="1094.0012,-159.5001 1084.0011,-163 1094.0011,-166.5001 1094.0012,-159.5001"/>
</g>
<!-- AppComponent  -->
<g id="node11" class="node">
<title>AppComponent </title>
<polygon fill="#80b1d3" stroke="#000000" points="1096.439,-252 987.561,-252 987.561,-216 1096.439,-216 1096.439,-252"/>
<text text-anchor="middle" x="1042" y="-229.8" font-family="Times,serif" font-size="14.00" fill="#000000">AppComponent </text>
</g>
<!-- AppModule&#45;&gt;AppComponent  -->
<g id="edge10" class="edge">
<title>AppModule&#45;&gt;AppComponent </title>
<path fill="none" stroke="#000000" stroke-dasharray="1,5" d="M1042,-187.1061C1042,-187.1061 1042,-205.991 1042,-205.991"/>
<polygon fill="#000000" stroke="#000000" points="1038.5001,-205.9909 1042,-215.991 1045.5001,-205.991 1038.5001,-205.9909"/>
</g>
<!-- AppRoutingModule -->
<g id="node6" class="node">
<title>AppRoutingModule</title>
<polygon fill="#8dd3c7" stroke="#000000" points="1321.2744,-122 1318.2744,-126 1297.2744,-126 1294.2744,-122 1192.7256,-122 1192.7256,-86 1321.2744,-86 1321.2744,-122"/>
<text text-anchor="middle" x="1257" y="-99.8" font-family="Times,serif" font-size="14.00" fill="#000000">AppRoutingModule</text>
</g>
<!-- AppRoutingModule&#45;&gt;AppModule -->
<g id="edge5" class="edge">
<title>AppRoutingModule&#45;&gt;AppModule</title>
<path fill="none" stroke="#000000" d="M1257,-122.2396C1257,-137.5706 1257,-157 1257,-157 1257,-157 1093.7091,-157 1093.7091,-157"/>
<polygon fill="#000000" stroke="#000000" points="1093.7091,-153.5001 1083.7091,-157 1093.7091,-160.5001 1093.7091,-153.5001"/>
</g>
<!-- EmployeeModule -->
<g id="node7" class="node">
<title>EmployeeModule</title>
<polygon fill="#8dd3c7" stroke="#000000" points="1174.3132,-122 1171.3132,-126 1150.3132,-126 1147.3132,-122 1057.6868,-122 1057.6868,-86 1174.3132,-86 1174.3132,-122"/>
<text text-anchor="middle" x="1116" y="-99.8" font-family="Times,serif" font-size="14.00" fill="#000000">EmployeeModule</text>
</g>
<!-- EmployeeModule&#45;&gt;AppModule -->
<g id="edge6" class="edge">
<title>EmployeeModule&#45;&gt;AppModule</title>
<path fill="none" stroke="#000000" d="M1070.8359,-122.1061C1070.8359,-122.1061 1070.8359,-140.991 1070.8359,-140.991"/>
<polygon fill="#000000" stroke="#000000" points="1067.336,-140.9909 1070.8359,-150.991 1074.336,-140.991 1067.336,-140.9909"/>
</g>
<!-- ReportingUserModule -->
<g id="node8" class="node">
<title>ReportingUserModule</title>
<polygon fill="#8dd3c7" stroke="#000000" points="1039.9692,-122 1036.9692,-126 1015.9692,-126 1012.9692,-122 898.0308,-122 898.0308,-86 1039.9692,-86 1039.9692,-122"/>
<text text-anchor="middle" x="969" y="-99.8" font-family="Times,serif" font-size="14.00" fill="#000000">ReportingUserModule</text>
</g>
<!-- ReportingUserModule&#45;&gt;AppModule -->
<g id="edge7" class="edge">
<title>ReportingUserModule&#45;&gt;AppModule</title>
<path fill="none" stroke="#000000" d="M1020.0782,-122.1061C1020.0782,-122.1061 1020.0782,-140.991 1020.0782,-140.991"/>
<polygon fill="#000000" stroke="#000000" points="1016.5783,-140.9909 1020.0782,-150.991 1023.5783,-140.991 1016.5783,-140.9909"/>
</g>
<!-- SharedModule -->
<g id="node9" class="node">
<title>SharedModule</title>
<polygon fill="#8dd3c7" stroke="#000000" points="880.4231,-122 877.4231,-126 856.4231,-126 853.4231,-122 781.5769,-122 781.5769,-86 880.4231,-86 880.4231,-122"/>
<text text-anchor="middle" x="831" y="-99.8" font-family="Times,serif" font-size="14.00" fill="#000000">SharedModule</text>
</g>
<!-- SharedModule&#45;&gt;AppModule -->
<g id="edge8" class="edge">
<title>SharedModule&#45;&gt;AppModule</title>
<path fill="none" stroke="#000000" d="M831,-122.2396C831,-137.5706 831,-157 831,-157 831,-157 990.3132,-157 990.3132,-157"/>
<polygon fill="#000000" stroke="#000000" points="990.3132,-160.5001 1000.3132,-157 990.3132,-153.5001 990.3132,-160.5001"/>
</g>
<!-- TestAdminModule -->
<g id="node10" class="node">
<title>TestAdminModule</title>
<polygon fill="#8dd3c7" stroke="#000000" points="764.0409,-122 761.0409,-126 740.0409,-126 737.0409,-122 641.9591,-122 641.9591,-86 764.0409,-86 764.0409,-122"/>
<text text-anchor="middle" x="703" y="-99.8" font-family="Times,serif" font-size="14.00" fill="#000000">TestAdminModule</text>
</g>
<!-- TestAdminModule&#45;&gt;AppModule -->
<g id="edge9" class="edge">
<title>TestAdminModule&#45;&gt;AppModule</title>
<path fill="none" stroke="#000000" d="M703,-122.0225C703,-139.3734 703,-163 703,-163 703,-163 990.0919,-163 990.0919,-163"/>
<polygon fill="#000000" stroke="#000000" points="990.092,-166.5001 1000.0919,-163 990.0919,-159.5001 990.092,-166.5001"/>
</g>
<!-- HttpErrorInterceptor -->
<g id="node12" class="node">
<title>HttpErrorInterceptor</title>
<ellipse fill="#fdb462" stroke="#000000" cx="527" cy="-104" rx="90.8665" ry="18"/>
<text text-anchor="middle" x="527" y="-99.8" font-family="Times,serif" font-size="14.00" fill="#000000">HttpErrorInterceptor</text>
</g>
<!-- HttpErrorInterceptor&#45;&gt;AppModule -->
<g id="edge11" class="edge">
<title>HttpErrorInterceptor&#45;&gt;AppModule</title>
<path fill="none" stroke="#000000" d="M527,-122.1061C527,-141.3391 527,-169 527,-169 527,-169 990.2916,-169 990.2916,-169"/>
<polygon fill="#000000" stroke="#000000" points="990.2917,-172.5001 1000.2916,-169 990.2916,-165.5001 990.2917,-172.5001"/>
</g>
<!-- LoaderInterceptorService -->
<g id="node13" class="node">
<title>LoaderInterceptorService</title>
<ellipse fill="#fdb462" stroke="#000000" cx="308" cy="-104" rx="109.8879" ry="18"/>
<text text-anchor="middle" x="308" y="-99.8" font-family="Times,serif" font-size="14.00" fill="#000000">LoaderInterceptorService</text>
</g>
<!-- LoaderInterceptorService&#45;&gt;AppModule -->
<g id="edge12" class="edge">
<title>LoaderInterceptorService&#45;&gt;AppModule</title>
<path fill="none" stroke="#000000" d="M308,-122.2843C308,-143.3211 308,-175 308,-175 308,-175 990.1677,-175 990.1677,-175"/>
<polygon fill="#000000" stroke="#000000" points="990.1677,-178.5001 1000.1677,-175 990.1676,-171.5001 990.1677,-178.5001"/>
</g>
<!-- TokenInterceptor -->
<g id="node14" class="node">
<title>TokenInterceptor</title>
<ellipse fill="#fdb462" stroke="#000000" cx="102" cy="-104" rx="78.1308" ry="18"/>
<text text-anchor="middle" x="102" y="-99.8" font-family="Times,serif" font-size="14.00" fill="#000000">TokenInterceptor</text>
</g>
<!-- TokenInterceptor&#45;&gt;AppModule -->
<g id="edge13" class="edge">
<title>TokenInterceptor&#45;&gt;AppModule</title>
<path fill="none" stroke="#000000" d="M102,-122.2479C102,-145.0179 102,-181 102,-181 102,-181 990.0908,-181 990.0908,-181"/>
<polygon fill="#000000" stroke="#000000" points="990.0908,-184.5001 1000.0908,-181 990.0907,-177.5001 990.0908,-184.5001"/>
</g>
</g>
</svg>
