<?xml version="1.0" encoding="UTF-8" standalone="no"?>
<!DOCTYPE svg PUBLIC "-//W3C//DTD SVG 1.1//EN"
 "http://www.w3.org/Graphics/SVG/1.1/DTD/svg11.dtd">
<!-- Generated by graphviz version 2.40.1 (20161225.0304)
 -->
<!-- Title: dependencies Pages: 1 -->
<svg width="1923pt" height="284pt"
 viewBox="0.00 0.00 1923.00 284.00" xmlns="http://www.w3.org/2000/svg" xmlns:xlink="http://www.w3.org/1999/xlink">
<g id="graph0" class="graph" transform="scale(1 1) rotate(0) translate(4 280)">
<title>dependencies</title>
<polygon fill="#ffffff" stroke="transparent" points="-4,4 -4,-280 1919,-280 1919,4 -4,4"/>
<text text-anchor="start" x="936.5091" y="-42.4" font-family="sans-serif" font-weight="bold" font-size="14.00" fill="#000000">Legend</text>
<polygon fill="#ffffb3" stroke="transparent" points="723.5,-10 723.5,-30 743.5,-30 743.5,-10 723.5,-10"/>
<text text-anchor="start" x="747.129" y="-15.4" font-family="sans-serif" font-size="14.00" fill="#000000"> &#160;Declarations</text>
<polygon fill="#8dd3c7" stroke="transparent" points="836.5,-10 836.5,-30 856.5,-30 856.5,-10 836.5,-10"/>
<text text-anchor="start" x="860.2251" y="-15.4" font-family="sans-serif" font-size="14.00" fill="#000000"> &#160;Module</text>
<polygon fill="#80b1d3" stroke="transparent" points="922.5,-10 922.5,-30 942.5,-30 942.5,-10 922.5,-10"/>
<text text-anchor="start" x="946.2812" y="-15.4" font-family="sans-serif" font-size="14.00" fill="#000000"> &#160;Bootstrap</text>
<polygon fill="#fdb462" stroke="transparent" points="1019.5,-10 1019.5,-30 1039.5,-30 1039.5,-10 1019.5,-10"/>
<text text-anchor="start" x="1043.1732" y="-15.4" font-family="sans-serif" font-size="14.00" fill="#000000"> &#160;Providers</text>
<polygon fill="#fb8072" stroke="transparent" points="1115.5,-10 1115.5,-30 1135.5,-30 1135.5,-10 1115.5,-10"/>
<text text-anchor="start" x="1139.2258" y="-15.4" font-family="sans-serif" font-size="14.00" fill="#000000"> &#160;Exports</text>
<g id="clust1" class="cluster">
<title>cluster_AppModule</title>
<polygon fill="none" stroke="#000000" stroke-dasharray="1,5" points="8,-70 8,-268 1907,-268 1907,-70 8,-70"/>
</g>
<g id="clust2" class="cluster">
<title>cluster_AppModule_declarations</title>
<polygon fill="none" stroke="#000000" points="1326,-78 1326,-130 1899,-130 1899,-78 1326,-78"/>
</g>
<g id="clust7" class="cluster">
<title>cluster_AppModule_imports</title>
<polygon fill="none" stroke="#000000" points="460,-78 460,-130 1318,-130 1318,-78 460,-78"/>
</g>
<g id="clust9" class="cluster">
<title>cluster_AppModule_bootstrap</title>
<polygon fill="none" stroke="#000000" points="954,-208 954,-260 1078,-260 1078,-208 954,-208"/>
</g>
<g id="clust10" class="cluster">
<title>cluster_AppModule_providers</title>
<polygon fill="none" stroke="#000000" points="16,-78 16,-130 452,-130 452,-78 16,-78"/>
</g>
<!-- AppComponent -->
<g id="node1" class="node">
<title>AppComponent</title>
<polygon fill="#ffffb3" stroke="#000000" points="1890.9399,-122 1785.0601,-122 1785.0601,-86 1890.9399,-86 1890.9399,-122"/>
<text text-anchor="middle" x="1838" y="-99.8" font-family="Times,serif" font-size="14.00" fill="#000000">AppComponent</text>
</g>
<!-- AppModule -->
<g id="node5" class="node">
<title>AppModule</title>
<polygon fill="#8dd3c7" stroke="#000000" points="1057.6571,-187 1054.6571,-191 1033.6571,-191 1030.6571,-187 974.3429,-187 974.3429,-151 1057.6571,-151 1057.6571,-187"/>
<text text-anchor="middle" x="1016" y="-164.8" font-family="Times,serif" font-size="14.00" fill="#000000">AppModule</text>
</g>
<!-- AppComponent&#45;&gt;AppModule -->
<g id="edge1" class="edge">
<title>AppComponent&#45;&gt;AppModule</title>
<path fill="none" stroke="#000000" d="M1838,-122.2479C1838,-145.0179 1838,-181 1838,-181 1838,-181 1067.8932,-181 1067.8932,-181"/>
<polygon fill="#000000" stroke="#000000" points="1067.8932,-177.5001 1057.8932,-181 1067.8932,-184.5001 1067.8932,-177.5001"/>
</g>
<!-- HomeComponent -->
<g id="node2" class="node">
<title>HomeComponent</title>
<polygon fill="#ffffb3" stroke="#000000" points="1767.5451,-122 1652.4549,-122 1652.4549,-86 1767.5451,-86 1767.5451,-122"/>
<text text-anchor="middle" x="1710" y="-99.8" font-family="Times,serif" font-size="14.00" fill="#000000">HomeComponent</text>
</g>
<!-- HomeComponent&#45;&gt;AppModule -->
<g id="edge2" class="edge">
<title>HomeComponent&#45;&gt;AppModule</title>
<path fill="none" stroke="#000000" d="M1710,-122.2843C1710,-143.3211 1710,-175 1710,-175 1710,-175 1067.8499,-175 1067.8499,-175"/>
<polygon fill="#000000" stroke="#000000" points="1067.85,-171.5001 1057.8499,-175 1067.8499,-178.5001 1067.85,-171.5001"/>
</g>
<!-- HttpInterceptorComponent -->
<g id="node3" class="node">
<title>HttpInterceptorComponent</title>
<polygon fill="#ffffb3" stroke="#000000" points="1633.6274,-122 1466.3726,-122 1466.3726,-86 1633.6274,-86 1633.6274,-122"/>
<text text-anchor="middle" x="1550" y="-99.8" font-family="Times,serif" font-size="14.00" fill="#000000">HttpInterceptorComponent</text>
</g>
<!-- HttpInterceptorComponent&#45;&gt;AppModule -->
<g id="edge3" class="edge">
<title>HttpInterceptorComponent&#45;&gt;AppModule</title>
<path fill="none" stroke="#000000" d="M1550,-122.1061C1550,-141.3391 1550,-169 1550,-169 1550,-169 1067.9021,-169 1067.9021,-169"/>
<polygon fill="#000000" stroke="#000000" points="1067.9021,-165.5001 1057.9021,-169 1067.902,-172.5001 1067.9021,-165.5001"/>
</g>
<!-- LoginComponent -->
<g id="node4" class="node">
<title>LoginComponent</title>
<polygon fill="#ffffb3" stroke="#000000" points="1448.2758,-122 1333.7242,-122 1333.7242,-86 1448.2758,-86 1448.2758,-122"/>
<text text-anchor="middle" x="1391" y="-99.8" font-family="Times,serif" font-size="14.00" fill="#000000">LoginComponent</text>
</g>
<!-- LoginComponent&#45;&gt;AppModule -->
<g id="edge4" class="edge">
<title>LoginComponent&#45;&gt;AppModule</title>
<path fill="none" stroke="#000000" d="M1391,-122.0225C1391,-139.3734 1391,-163 1391,-163 1391,-163 1067.9257,-163 1067.9257,-163"/>
<polygon fill="#000000" stroke="#000000" points="1067.9257,-159.5001 1057.9257,-163 1067.9257,-166.5001 1067.9257,-159.5001"/>
</g>
<!-- AppComponent  -->
<g id="node12" class="node">
<title>AppComponent </title>
<polygon fill="#80b1d3" stroke="#000000" points="1070.439,-252 961.561,-252 961.561,-216 1070.439,-216 1070.439,-252"/>
<text text-anchor="middle" x="1016" y="-229.8" font-family="Times,serif" font-size="14.00" fill="#000000">AppComponent </text>
</g>
<!-- AppModule&#45;&gt;AppComponent  -->
<g id="edge11" class="edge">
<title>AppModule&#45;&gt;AppComponent </title>
<path fill="none" stroke="#000000" stroke-dasharray="1,5" d="M1016,-187.1061C1016,-187.1061 1016,-205.991 1016,-205.991"/>
<polygon fill="#000000" stroke="#000000" points="1012.5001,-205.9909 1016,-215.991 1019.5001,-205.991 1012.5001,-205.9909"/>
</g>
<!-- AppRoutingModule -->
<g id="node6" class="node">
<title>AppRoutingModule</title>
<polygon fill="#8dd3c7" stroke="#000000" points="1310.2744,-122 1307.2744,-126 1286.2744,-126 1283.2744,-122 1181.7256,-122 1181.7256,-86 1310.2744,-86 1310.2744,-122"/>
<text text-anchor="middle" x="1246" y="-99.8" font-family="Times,serif" font-size="14.00" fill="#000000">AppRoutingModule</text>
</g>
<!-- AppRoutingModule&#45;&gt;AppModule -->
<g id="edge5" class="edge">
<title>AppRoutingModule&#45;&gt;AppModule</title>
<path fill="none" stroke="#000000" d="M1246,-122.2396C1246,-137.5706 1246,-157 1246,-157 1246,-157 1067.9181,-157 1067.9181,-157"/>
<polygon fill="#000000" stroke="#000000" points="1067.9181,-153.5001 1057.9181,-157 1067.9181,-160.5001 1067.9181,-153.5001"/>
</g>
<!-- ContentCreatorModule -->
<g id="node7" class="node">
<title>ContentCreatorModule</title>
<polygon fill="#8dd3c7" stroke="#000000" points="1163.8599,-122 1160.8599,-126 1139.8599,-126 1136.8599,-122 1018.1401,-122 1018.1401,-86 1163.8599,-86 1163.8599,-122"/>
<text text-anchor="middle" x="1091" y="-99.8" font-family="Times,serif" font-size="14.00" fill="#000000">ContentCreatorModule</text>
</g>
<!-- ContentCreatorModule&#45;&gt;AppModule -->
<g id="edge6" class="edge">
<title>ContentCreatorModule&#45;&gt;AppModule</title>
<path fill="none" stroke="#000000" d="M1037.9492,-122.1061C1037.9492,-122.1061 1037.9492,-140.991 1037.9492,-140.991"/>
<polygon fill="#000000" stroke="#000000" points="1034.4492,-140.9909 1037.9492,-150.991 1041.4492,-140.991 1034.4492,-140.9909"/>
</g>
<!-- EmployeeModule -->
<g id="node8" class="node">
<title>EmployeeModule</title>
<polygon fill="#8dd3c7" stroke="#000000" points="1000.3132,-122 997.3132,-126 976.3132,-126 973.3132,-122 883.6868,-122 883.6868,-86 1000.3132,-86 1000.3132,-122"/>
<text text-anchor="middle" x="942" y="-99.8" font-family="Times,serif" font-size="14.00" fill="#000000">EmployeeModule</text>
</g>
<!-- EmployeeModule&#45;&gt;AppModule -->
<g id="edge7" class="edge">
<title>EmployeeModule&#45;&gt;AppModule</title>
<path fill="none" stroke="#000000" d="M987.1641,-122.1061C987.1641,-122.1061 987.1641,-140.991 987.1641,-140.991"/>
<polygon fill="#000000" stroke="#000000" points="983.6642,-140.9909 987.1641,-150.991 990.6642,-140.991 983.6642,-140.9909"/>
</g>
<!-- ReportingUserModule -->
<g id="node9" class="node">
<title>ReportingUserModule</title>
<polygon fill="#8dd3c7" stroke="#000000" points="865.9692,-122 862.9692,-126 841.9692,-126 838.9692,-122 724.0308,-122 724.0308,-86 865.9692,-86 865.9692,-122"/>
<text text-anchor="middle" x="795" y="-99.8" font-family="Times,serif" font-size="14.00" fill="#000000">ReportingUserModule</text>
</g>
<!-- ReportingUserModule&#45;&gt;AppModule -->
<g id="edge8" class="edge">
<title>ReportingUserModule&#45;&gt;AppModule</title>
<path fill="none" stroke="#000000" d="M795,-122.2396C795,-137.5706 795,-157 795,-157 795,-157 964.1718,-157 964.1718,-157"/>
<polygon fill="#000000" stroke="#000000" points="964.1718,-160.5001 974.1718,-157 964.1717,-153.5001 964.1718,-160.5001"/>
</g>
<!-- SharedModule -->
<g id="node10" class="node">
<title>SharedModule</title>
<polygon fill="#8dd3c7" stroke="#000000" points="706.4231,-122 703.4231,-126 682.4231,-126 679.4231,-122 607.5769,-122 607.5769,-86 706.4231,-86 706.4231,-122"/>
<text text-anchor="middle" x="657" y="-99.8" font-family="Times,serif" font-size="14.00" fill="#000000">SharedModule</text>
</g>
<!-- SharedModule&#45;&gt;AppModule -->
<g id="edge9" class="edge">
<title>SharedModule&#45;&gt;AppModule</title>
<path fill="none" stroke="#000000" d="M657,-122.0225C657,-139.3734 657,-163 657,-163 657,-163 964.1155,-163 964.1155,-163"/>
<polygon fill="#000000" stroke="#000000" points="964.1156,-166.5001 974.1155,-163 964.1155,-159.5001 964.1156,-166.5001"/>
</g>
<!-- TestAdminModule -->
<g id="node11" class="node">
<title>TestAdminModule</title>
<polygon fill="#8dd3c7" stroke="#000000" points="590.0409,-122 587.0409,-126 566.0409,-126 563.0409,-122 467.9591,-122 467.9591,-86 590.0409,-86 590.0409,-122"/>
<text text-anchor="middle" x="529" y="-99.8" font-family="Times,serif" font-size="14.00" fill="#000000">TestAdminModule</text>
</g>
<!-- TestAdminModule&#45;&gt;AppModule -->
<g id="edge10" class="edge">
<title>TestAdminModule&#45;&gt;AppModule</title>
<path fill="none" stroke="#000000" d="M529,-122.1061C529,-141.3391 529,-169 529,-169 529,-169 964.0572,-169 964.0572,-169"/>
<polygon fill="#000000" stroke="#000000" points="964.0572,-172.5001 974.0572,-169 964.0571,-165.5001 964.0572,-172.5001"/>
</g>
<!-- HttpErrorInterceptor -->
<g id="node13" class="node">
<title>HttpErrorInterceptor</title>
<ellipse fill="#fdb462" stroke="#000000" cx="353" cy="-104" rx="90.8665" ry="18"/>
<text text-anchor="middle" x="353" y="-99.8" font-family="Times,serif" font-size="14.00" fill="#000000">HttpErrorInterceptor</text>
</g>
<!-- HttpErrorInterceptor&#45;&gt;AppModule -->
<g id="edge12" class="edge">
<title>HttpErrorInterceptor&#45;&gt;AppModule</title>
<path fill="none" stroke="#000000" d="M353,-122.2843C353,-143.3211 353,-175 353,-175 353,-175 964.2752,-175 964.2752,-175"/>
<polygon fill="#000000" stroke="#000000" points="964.2753,-178.5001 974.2752,-175 964.2752,-171.5001 964.2753,-178.5001"/>
</g>
<!-- LoaderInterceptorService -->
<g id="node14" class="node">
<title>LoaderInterceptorService</title>
<ellipse fill="#fdb462" stroke="#000000" cx="134" cy="-104" rx="109.8879" ry="18"/>
<text text-anchor="middle" x="134" y="-99.8" font-family="Times,serif" font-size="14.00" fill="#000000">LoaderInterceptorService</text>
</g>
<!-- LoaderInterceptorService&#45;&gt;AppModule -->
<g id="edge13" class="edge">
<title>LoaderInterceptorService&#45;&gt;AppModule</title>
<path fill="none" stroke="#000000" d="M134,-122.2479C134,-145.0179 134,-181 134,-181 134,-181 964.0527,-181 964.0527,-181"/>
<polygon fill="#000000" stroke="#000000" points="964.0527,-184.5001 974.0527,-181 964.0526,-177.5001 964.0527,-184.5001"/>
</g>
</g>
</svg>
